<mxfile host="app.diagrams.net" agent="Mozilla/5.0 (Windows NT 10.0; Win64; x64) AppleWebKit/537.36 (KHTML, like Gecko) Chrome/131.0.0.0 Safari/537.36" version="25.0.1">
  <diagram id="NuiUb0wcok8Fi30SK5-c" name="as-is">
    <mxGraphModel dx="4918" dy="2200" grid="1" gridSize="10" guides="1" tooltips="1" connect="1" arrows="1" fold="1" page="1" pageScale="1" pageWidth="827" pageHeight="1169" math="0" shadow="0">
      <root>
        <mxCell id="0" />
        <mxCell id="1" parent="0" />
        <mxCell id="JNt9-kuH4g4dh-vLSPPS-78" value="&lt;font style=&quot;font-size: 20px;&quot;&gt;ЦОД2&lt;/font&gt;" style="verticalAlign=top;align=center;overflow=width;vsdxID=5;fillColor=#e3ebff;gradientColor=none;shape=stencil(vVNBDsIgEHwNRwxCjHqu+g9iaUtEaBa09fdSwdpi9dBDb8vOwOwsGcQyW/FaIEqsA3MRjcxdhdgBUSp1JUA6XyF2RCwrDIgSzE3n4VzzjtlVV3PvXmjDPdLdoOQRTrvtavNqnAKXw9mDELkBIhDJaxrJZIy/YRLfbjFvpcVgHHfS6JGu4lAK7GVwoXg5gmwjRP3VjoMpqQcm9tPKs0z0Y6crWcBHqt0PN8tJspXFfmNKdpaBH8tYwML/VPjiE6dCKhXSOMTT+PlWiC47PgE=);strokeColor=none;spacingTop=-3;spacingBottom=-3;spacingLeft=-3;spacingRight=-3;points=[];labelBackgroundColor=none;rounded=0;html=1;whiteSpace=wrap;labelPosition=center;verticalLabelPosition=bottom;" parent="1" vertex="1">
          <mxGeometry x="7" y="450.43" width="453" height="770" as="geometry" />
        </mxCell>
        <mxCell id="JNt9-kuH4g4dh-vLSPPS-75" value="&lt;font style=&quot;font-size: 20px;&quot;&gt;ЦОД1&lt;/font&gt;" style="verticalAlign=top;align=center;overflow=width;vsdxID=5;fillColor=#e3ebff;gradientColor=none;shape=stencil(vVNBDsIgEHwNRwxCjHqu+g9iaUtEaBa09fdSwdpi9dBDb8vOwOwsGcQyW/FaIEqsA3MRjcxdhdgBUSp1JUA6XyF2RCwrDIgSzE3n4VzzjtlVV3PvXmjDPdLdoOQRTrvtavNqnAKXw9mDELkBIhDJaxrJZIy/YRLfbjFvpcVgHHfS6JGu4lAK7GVwoXg5gmwjRP3VjoMpqQcm9tPKs0z0Y6crWcBHqt0PN8tJspXFfmNKdpaBH8tYwML/VPjiE6dCKhXSOMTT+PlWiC47PgE=);strokeColor=none;spacingTop=-3;spacingBottom=-3;spacingLeft=-3;spacingRight=-3;points=[];labelBackgroundColor=none;rounded=0;html=1;whiteSpace=wrap;labelPosition=center;verticalLabelPosition=bottom;" parent="1" vertex="1">
          <mxGeometry x="-510" y="452.43" width="452" height="770" as="geometry" />
        </mxCell>
        <mxCell id="JNt9-kuH4g4dh-vLSPPS-48" style="vsdxID=5;fillColor=none;gradientColor=none;strokeColor=none;spacingTop=-3;spacingBottom=-3;spacingLeft=-3;spacingRight=-3;points=[];labelBackgroundColor=none;rounded=0;html=1;whiteSpace=wrap;" parent="1" vertex="1">
          <mxGeometry x="-700" y="673.89" width="1320" height="560" as="geometry" />
        </mxCell>
        <mxCell id="JNt9-kuH4g4dh-vLSPPS-49" style="vsdxID=6;fillColor=none;gradientColor=none;shape=stencil(vVPREoIgEPwaHnFQmtJnq/9gEpWJxDkp7e+DoEnDerAZ3467PZa9YxHNu5q1HCWk06DOvBeFrhHdoyQRTc1BaBMhekA0LxXwCtS1Kdy5ZRZpo4u62RsG10dsR0Lu7pSRaPNMHB2WwckUwWPjKKUODi98tHWJAOEBMfEEA2aD6DAozbRQzYRcMqg4Nly4lKyalLqe8zZI+9dJ0YyUZGkU72bJl4ohX4azgpiA279toZRwNqutJfgSf+1kfioryPjtExO8DVYKKZ0/x/VPQ5qUMzM9PAA=);strokeColor=#5282ff;spacingTop=-3;spacingBottom=-3;spacingLeft=-3;spacingRight=-3;points=[];labelBackgroundColor=none;rounded=0;html=1;whiteSpace=wrap;" parent="JNt9-kuH4g4dh-vLSPPS-48" vertex="1">
          <mxGeometry x="70" width="1111.05" height="450" as="geometry" />
        </mxCell>
        <mxCell id="JNt9-kuH4g4dh-vLSPPS-51" value="Citus" style="shape=image;verticalLabelPosition=bottom;labelBackgroundColor=#ffffff;verticalAlign=top;aspect=fixed;imageAspect=0;image=data:image/svg+xml,PHN2ZyB4bWxucz0iaHR0cDovL3d3dy53My5vcmcvMjAwMC9zdmciIHdpZHRoPSIzMiIgaGVpZ2h0PSIzMiIgdmlld0JveD0iMCAwIDMyIDMyIiBmaWxsPSJub25lIj4mI3hhOzxwYXRoIGQ9Ik0wIDE2QzAgNy4xNjM0NCA3LjE2MzQ0IDAgMTYgMEMyNC44MzY2IDAgMzIgNy4xNjM0NCAzMiAxNkMzMiAyNC44MzY2IDI0LjgzNjYgMzIgMTYgMzJDNy4xNjM0NCAzMiAwIDI0LjgzNjYgMCAxNloiIGZpbGw9IiM1MjgyRkYiLz4mI3hhOzxwYXRoIGZpbGwtcnVsZT0iZXZlbm9kZCIgY2xpcC1ydWxlPSJldmVub2RkIiBkPSJNMTkgMjEuNDkyQzE5IDIxLjI2NSAxOS4wNTEgMjEuMDUyIDE5LjE0NiAyMC44NTJMMTcuMjk4IDE4Ljk5OEgxNlYxOS42NzhDMTYgMjAuNDEyIDE1LjQwOCAyMC45OTggMTQuNjc5IDIwLjk5OEg5LjMyQzguNTkxIDIwLjk5OCA4IDIwLjQxMiA4IDE5LjY3OFYxMS4zMTlDOCAxMC41ODYgOC41OTIgOS45OTkwMSA5LjMyMSA5Ljk5OTAxSDE0LjY4QzE1LjQxIDkuOTk5MDEgMTYuMDAxIDEwLjU4NiAxNi4wMDEgMTEuMzE5VjExLjk5OUgxNy4yOTlMMTkuMTQ2IDEwLjE0NkMxOS4wMzYxIDkuOTE3NDkgMTguOTg2IDkuNjY0OCAxOS4wMDA0IDkuNDExNjNDMTkuMDE0OSA5LjE1ODQ2IDE5LjA5MzQgOC45MTMxMiAxOS4yMjg3IDguNjk4NjFDMTkuMzYzOSA4LjQ4NDEgMTkuNTUxNCA4LjMwNzQ3IDE5Ljc3MzYgOC4xODUyN0MxOS45OTU4IDguMDYzMDggMjAuMjQ1NCA3Ljk5OTMzIDIwLjQ5OSA4LjAwMDAxQzIwLjcyNDIgNy45OTk5MSAyMC45NDY2IDguMDUwNTQgMjEuMTQ5NiA4LjE0ODEzQzIxLjM1MjUgOC4yNDU3MiAyMS41MzA5IDguMzg3NzYgMjEuNjcxNSA4LjU2MzcyQzIxLjgxMjEgOC43Mzk2OCAyMS45MTEyIDguOTQ1MDMgMjEuOTYxNiA5LjE2NDU1QzIyLjAxMiA5LjM4NDA3IDIyLjAxMjMgOS42MTIxMSAyMS45NjI1IDkuODMxNzVDMjEuOTEyNiAxMC4wNTE0IDIxLjgxNCAxMC4yNTcgMjEuNjczOSAxMC40MzMzQzIxLjUzMzcgMTAuNjA5NiAyMS4zNTU3IDEwLjc1MjEgMjEuMTUzIDEwLjg1MDJDMjAuOTUwMiAxMC45NDgzIDIwLjcyOCAxMC45OTk1IDIwLjUwMjggMTFDMjAuMjc3NiAxMS4wMDA1IDIwLjA1NTEgMTAuOTUwMiAxOS44NTIgMTAuODUzTDE3Ljg2IDEyLjg1M0MxNy43NjU4IDEyLjk0NjIgMTcuNjM4NSAxMi45OTgzIDE3LjUwNiAxMi45OThIMTZWMTQuOTk4SDIxLjA4MkMyMS4yODggMTQuNDExIDIxLjg0NCAxMy45OTggMjIuNDk4IDEzLjk5OEMyMi44OTU4IDEzLjk5OCAyMy4yNzc0IDE0LjE1NiAyMy41NTg3IDE0LjQzNzNDMjMuODQgMTQuNzE4NiAyMy45OTggMTUuMTAwMiAyMy45OTggMTUuNDk4QzIzLjk5OCAxNS44OTU4IDIzLjg0IDE2LjI3NzQgMjMuNTU4NyAxNi41NTg3QzIzLjI3NzQgMTYuODQgMjIuODk1OCAxNi45OTggMjIuNDk4IDE2Ljk5OEMyMS44NDQgMTYuOTk4IDIxLjI4OCAxNi41ODQgMjEuMDgyIDE1Ljk5OEgxNlYxNy45OThIMTcuNTA2QzE3LjYzOCAxNy45OTggMTcuNzY2IDE4LjA1MSAxNy44NiAxOC4xNDRMMTkuODUzIDIwLjE0NEMyMC4wODEyIDIwLjAzMzYgMjAuMzMzNiAxOS45ODMgMjAuNTg2NyAxOS45OTY4QzIwLjgzOTggMjAuMDEwNiAyMS4wODUzIDIwLjA4ODUgMjEuMzAwMSAyMC4yMjMxQzIxLjUxNDggMjAuMzU3OCAyMS42OTE5IDIwLjU0NDcgMjEuODE0NyAyMC43NjY1QzIxLjkzNzUgMjAuOTg4MiAyMi4wMDE5IDIxLjIzNzUgMjIuMDAyIDIxLjQ5MUMyMi4wMDI5IDIxLjY4ODcgMjEuOTY0NyAyMS44ODQ3IDIxLjg4OTYgMjIuMDY3NkMyMS44MTQ2IDIyLjI1MDYgMjEuNzA0IDIyLjQxNjggMjEuNTY0NCAyMi41NTY5QzIxLjQyNDggMjIuNjk3IDIxLjI1ODkgMjIuODA4IDIxLjA3NjMgMjIuODgzN0MyMC44OTM2IDIyLjk1OTQgMjAuNjk3NyAyMi45OTgzIDIwLjUgMjIuOTk4QzIwLjMwMjMgMjIuOTk4MyAyMC4xMDY2IDIyLjk1OTUgMTkuOTI0IDIyLjg4MzhDMTkuNzQxNCAyMi44MDgyIDE5LjU3NTUgMjIuNjk3MiAxOS40MzU5IDIyLjU1NzNDMTkuMjk2MyAyMi40MTczIDE5LjE4NTggMjIuMjUxMSAxOS4xMTA2IDIyLjA2ODNDMTkuMDM1NSAyMS44ODU1IDE4Ljk5NzIgMjEuNjg5NyAxOC45OTggMjEuNDkySDE5Wk0xNSAxNy41MDVWMTcuNDkyQzE0Ljk5ODQgMTcuMzYwOCAxNC45NDUzIDE3LjIzNTQgMTQuODUyMiAxNy4xNDNDMTQuNzU5IDE3LjA1MDYgMTQuNjMzMiAxNi45OTg1IDE0LjUwMiAxNi45OThIOS40OThDOS4zNjY3NyAxNi45OTg1IDkuMjQxMDEgMTcuMDUwNiA5LjE0Nzg0IDE3LjE0M0M5LjA1NDY3IDE3LjIzNTQgOS4wMDE1NyAxNy4zNjA4IDkgMTcuNDkyVjE3LjUwNUM5LjAwMTgzIDE3LjYzNjEgOS4wNTUwNSAxNy43NjExIDkuMTQ4MTkgMTcuODUzM0M5LjI0MTMyIDE3Ljk0NTUgOS4zNjY5NCAxNy45OTc1IDkuNDk4IDE3Ljk5OEgxNC41MDJDMTQuNjMzMSAxNy45OTc1IDE0Ljc1ODcgMTcuOTQ1NSAxNC44NTE4IDE3Ljg1MzNDMTQuOTQ1IDE3Ljc2MTEgMTQuOTk4MiAxNy42MzYxIDE1IDE3LjUwNVpNMTUgMTMuNTA1VjEzLjQ5MkMxNC45OTgyIDEzLjM2MSAxNC45NDUgMTMuMjM1OSAxNC44NTE4IDEzLjE0MzdDMTQuNzU4NyAxMy4wNTE1IDE0LjYzMzEgMTIuOTk5NSAxNC41MDIgMTIuOTk5SDkuNDk4QzkuMzY2OTQgMTIuOTk5NSA5LjI0MTMyIDEzLjA1MTUgOS4xNDgxOSAxMy4xNDM3QzkuMDU1MDUgMTMuMjM1OSA5LjAwMTgzIDEzLjM2MSA5IDEzLjQ5MlYxMy41MDZDOS4wMDIwOSAxMy42MzY5IDkuMDU1NDIgMTMuNzYxNyA5LjE0ODUzIDEzLjg1MzdDOS4yNDE2NCAxMy45NDU3IDkuMzY3MTEgMTMuOTk3NSA5LjQ5OCAxMy45OThIMTQuNTAyQzE0LjYzMjkgMTMuOTk3NSAxNC43NTg0IDEzLjk0NTcgMTQuODUxNSAxMy44NTM3QzE0Ljk0NDYgMTMuNzYxNyAxNC45OTc5IDEzLjYzNjkgMTUgMTMuNTA2VjEzLjUwNVoiIGZpbGw9IndoaXRlIi8+JiN4YTs8L3N2Zz4=;fontSize=20;" parent="JNt9-kuH4g4dh-vLSPPS-48" vertex="1">
          <mxGeometry x="100.00009623798664" y="80.00000000000003" width="43.42105263157894" height="43.42105263157894" as="geometry" />
        </mxCell>
        <mxCell id="JNt9-kuH4g4dh-vLSPPS-31" style="vsdxID=5;fillColor=none;gradientColor=none;strokeColor=none;spacingTop=-3;spacingBottom=-3;spacingLeft=-3;spacingRight=-3;points=[];labelBackgroundColor=none;rounded=0;html=1;whiteSpace=wrap;" parent="1" vertex="1">
          <mxGeometry x="-600" y="877.89" width="1060" height="346" as="geometry" />
        </mxCell>
        <mxCell id="JNt9-kuH4g4dh-vLSPPS-32" style="vsdxID=6;fillColor=none;gradientColor=none;shape=stencil(vVNdD4IgFP01PMpIms1ns//BEpVF4K6U9u/DoFJxPdjm2/04cO65cBDN2po1HMWkNaAvvBOFqRE9ojgWquYgjI0QzRHNSg28An1ThcsbNiCH6Krvww29O0eGEzF5uCwleP8qnByWwdk2wWMpTg8ODm88TlwhQHjAjniCPmK9aCPQhhmh1YRcMqh4ZLmiUrJq0mo7zpug7KeTQo2UpAkmdJF8pZjP7PPlbCAm4PazrZQS7mazZwm+xF9vsryVDWT89okNvgYrhZTOn+P+3JC25MxM8yc=);strokeColor=#5282ff;spacingTop=-3;spacingBottom=-3;spacingLeft=-3;spacingRight=-3;points=[];labelBackgroundColor=none;rounded=0;html=1;whiteSpace=wrap;" parent="JNt9-kuH4g4dh-vLSPPS-31" vertex="1">
          <mxGeometry x="9.814814814814815" width="1050.1851851851852" height="225" as="geometry" />
        </mxCell>
        <mxCell id="hrTpGgg3rpqertAnfvy--6" value="" style="shape=image;verticalLabelPosition=bottom;verticalAlign=top;imageAspect=0;aspect=fixed;image=data:image/svg+xml,PHN2ZyB4bWxucz0iaHR0cDovL3d3dy53My5vcmcvMjAwMC9zdmciIHdpZHRoPSIzMiIgaGVpZ2h0PSIzMiIgdmlld0JveD0iMCAwIDMyIDMyIiBmaWxsPSJub25lIj4mI3hhOzxwYXRoIGQ9Ik0wIDE2QzAgNy4xNjM0NCA3LjE2MzQ0IDAgMTYgMFYwQzI0LjgzNjYgMCAzMiA3LjE2MzQ0IDMyIDE2VjE2QzMyIDI0LjgzNjYgMjQuODM2NiAzMiAxNiAzMlYzMkM3LjE2MzQ0IDMyIDAgMjQuODM2NiAwIDE2VjE2WiIgZmlsbD0iIzUyODJGRiIvPiYjeGE7PHBhdGggZD0iTTExLjk5NSAyNEw3LjAwMDk4IDE3LjczOEw4Ljc4MTk4IDkuOTI3TDE2IDYuNDUzTDIzLjIxOCA5LjkyOEwyNC45OTkgMTcuNzM5TDIwLjAwNSAyNEgxMS45OTVaTTIwIDEzLjE5NkwxNS45OTkgMTAuODk5TDEyIDEzLjE5NlYxOC4xTDE2IDIwLjQwMUwyMCAxOC4xVjEzLjE5NlpNMTguNzggMTMuODk2SDE4Ljc4N0wxNiAxNS40OTlMMTMuMjE0IDEzLjg5NUgxMy4yMTlMMTUuOTk5IDEyLjI5OUwxOC43OCAxMy44OTZaIiBmaWxsPSJ3aGl0ZSIvPiYjeGE7PC9zdmc+;container=0;" parent="1" vertex="1">
          <mxGeometry x="-205" y="523.89" width="28.571428571428573" height="28.571428571428573" as="geometry" />
        </mxCell>
        <mxCell id="hrTpGgg3rpqertAnfvy--7" style="vsdxID=5;fillColor=none;gradientColor=none;shape=stencil(vVPLEoIgFP0aljgEVuPa6j+YRGUica6U9vdhUKk4LWzG3X0cOPdcOIilTclrgShpDOiLaGVmSsQOiFJZlQKksRFiR8TSXIMoQN+qzOU175F9dNX3/obOnSP9CUoeLktIFL8KJ4flcLZN8NhtRJiDwxsf7VwhQHjAhniCDvNONhi04UbqakSuOBQCWy6cK16MWk0rRB2U/XRKVgMlSRwl+1nyhWI+s0+Xs4KYgNvPtlBKuJvVniX4En+9yfxWVpDx2yc2+Bosl0o5fw77U0PakjMzOz4B);strokeColor=#ff5958;spacingTop=-3;spacingBottom=-3;spacingLeft=-3;spacingRight=-3;points=[];labelBackgroundColor=none;rounded=0;html=1;whiteSpace=wrap;container=0;" parent="1" vertex="1">
          <mxGeometry x="-270" y="513.89" width="130" height="100" as="geometry" />
        </mxCell>
        <mxCell id="hrTpGgg3rpqertAnfvy--8" value="&lt;div style=&quot;font-size: 1px&quot;&gt;&lt;font style=&quot;font-size:22.58px;font-family:Arial;color:#000000;direction:ltr;letter-spacing:0px;line-height:120%;opacity:1&quot;&gt;InsureTech&lt;/font&gt;&lt;/div&gt;&lt;div style=&quot;font-size: 1px&quot;&gt;&lt;font style=&quot;font-size:22.58px;font-family:Arial;color:#000000;direction:ltr;letter-spacing:0px;line-height:120%;opacity:1&quot;&gt;namespace&lt;/font&gt;&lt;/div&gt;" style="verticalAlign=bottom;align=center;overflow=width;vsdxID=6;fillColor=none;gradientColor=none;strokeColor=none;spacingTop=-3;spacingBottom=-3;spacingLeft=-3;spacingRight=-3;points=[];labelBackgroundColor=none;rounded=0;html=1;whiteSpace=wrap;container=0;" parent="1" vertex="1">
          <mxGeometry x="-270" y="553.89" width="130" height="54" as="geometry" />
        </mxCell>
        <mxCell id="hrTpGgg3rpqertAnfvy--9" style="vsdxID=5;fillColor=none;gradientColor=none;shape=stencil(vVPLEoIgFP0aljgEVuPa6j+YRGUica6U9vdhUKk4LWzG3X0cOPdcOIilTclrgShpDOiLaGVmSsQOiFJZlQKksRFiR8TSXIMoQN+qzOU175F9dNX3/obOnSP9CUoeLktIFL8KJ4flcLZN8NhtRJiDwxsf7VwhQHjAhniCDvNONhi04UbqakSuOBQCWy6cK16MWk0rRB2U/XRKVgMlSRwl+1nyhWI+s0+Xs4KYgNvPtlBKuJvVniX4En+9yfxWVpDx2yc2+Bosl0o5fw77U0PakjMzOz4B);strokeColor=#ff5958;spacingTop=-3;spacingBottom=-3;spacingLeft=-3;spacingRight=-3;points=[];labelBackgroundColor=none;rounded=0;html=1;whiteSpace=wrap;container=0;" parent="1" vertex="1">
          <mxGeometry x="-498" y="923.89" width="130" height="105.5" as="geometry" />
        </mxCell>
        <mxCell id="hrTpGgg3rpqertAnfvy--10" value="&lt;div style=&quot;font-size: 1px&quot;&gt;&lt;font style=&quot;font-size:22.58px;font-family:Arial;color:#000000;direction:ltr;letter-spacing:0px;line-height:120%;opacity:1&quot;&gt;PosrgreSQL&lt;br&gt;&lt;/font&gt;&lt;/div&gt;&lt;div style=&quot;font-size: 1px&quot;&gt;&lt;font style=&quot;font-size:22.58px;font-family:Arial;color:#000000;direction:ltr;letter-spacing:0px;line-height:120%;opacity:1&quot;&gt;(shard1)&lt;/font&gt;&lt;/div&gt;" style="verticalAlign=bottom;align=center;overflow=width;vsdxID=6;fillColor=none;gradientColor=none;strokeColor=none;spacingTop=-3;spacingBottom=-3;spacingLeft=-3;spacingRight=-3;points=[];labelBackgroundColor=none;rounded=0;html=1;whiteSpace=wrap;container=0;" parent="1" vertex="1">
          <mxGeometry x="-498" y="968.89" width="130" height="53.21" as="geometry" />
        </mxCell>
        <mxCell id="hrTpGgg3rpqertAnfvy--11" value="" style="shape=image;verticalLabelPosition=bottom;verticalAlign=top;imageAspect=0;aspect=fixed;image=data:image/svg+xml,PHN2ZyB4bWxucz0iaHR0cDovL3d3dy53My5vcmcvMjAwMC9zdmciIHdpZHRoPSIzMiIgaGVpZ2h0PSIzMiIgdmlld0JveD0iMCAwIDMyIDMyIiBmaWxsPSJub25lIj4mI3hhOzxwYXRoIGQ9Ik0wIDE2QzAgNy4xNjM0NCA3LjE2MzQ0IDAgMTYgMFYwQzI0LjgzNjYgMCAzMiA3LjE2MzQ0IDMyIDE2VjE2QzMyIDI0LjgzNjYgMjQuODM2NiAzMiAxNiAzMlYzMkM3LjE2MzQ0IDMyIDAgMjQuODM2NiAwIDE2VjE2WiIgZmlsbD0iIzUyODJGRiIvPiYjeGE7PHBhdGggZmlsbC1ydWxlPSJldmVub2RkIiBjbGlwLXJ1bGU9ImV2ZW5vZGQiIGQ9Ik0xMyA4SDE4QzIxLjMgOCAyNCAxMC43IDI0IDE0VjI0SDIwVjIwSDIyVjE5SDE4LjZDMTUuNSAxOSAxMyAxNi41IDEzIDEzLjRWOFpNMTkgMTdIMjFWMTVIMTlWMTdaTTEyIDkuMDk5OThWMTMuNEMxMiAxNi44IDE0LjYgMTkuNyAxOCAyMC4xVjIwLjZDMTggMjIgMTUuOCAyMy4xIDEzIDIzLjFDMTAuMiAyMy4xIDggMjIgOCAyMC42VjExLjZDOCAxMC4zIDkuNyA5LjI5OTk4IDEyIDkuMDk5OThaIiBmaWxsPSJ3aGl0ZSIvPiYjeGE7PC9zdmc+;container=0;" parent="1" vertex="1">
          <mxGeometry x="-453.5" y="927.89" width="36.26923076923077" height="36.26923076923077" as="geometry" />
        </mxCell>
        <mxCell id="hrTpGgg3rpqertAnfvy--12" value="" style="aspect=fixed;sketch=0;html=1;dashed=0;whitespace=wrap;verticalLabelPosition=bottom;verticalAlign=top;fillColor=#2875E2;strokeColor=#ffffff;points=[[0.005,0.63,0],[0.1,0.2,0],[0.9,0.2,0],[0.5,0,0],[0.995,0.63,0],[0.72,0.99,0],[0.5,1,0],[0.28,0.99,0]];shape=mxgraph.kubernetes.icon2;prIcon=group;container=0;" parent="1" vertex="1">
          <mxGeometry x="-7" y="123.88999999999999" width="50" height="48" as="geometry" />
        </mxCell>
        <mxCell id="hrTpGgg3rpqertAnfvy--13" style="vsdxID=5;fillColor=none;gradientColor=none;shape=stencil(vVPLEoIgFP0aljgEVuPa6j+YRGUica6U9vdhUKk4LWzG3X0cOPdcOIilTclrgShpDOiLaGVmSsQOiFJZlQKksRFiR8TSXIMoQN+qzOU175F9dNX3/obOnSP9CUoeLktIFL8KJ4flcLZN8NhtRJiDwxsf7VwhQHjAhniCDvNONhi04UbqakSuOBQCWy6cK16MWk0rRB2U/XRKVgMlSRwl+1nyhWI+s0+Xs4KYgNvPtlBKuJvVniX4En+9yfxWVpDx2yc2+Bosl0o5fw77U0PakjMzOz4B);strokeColor=#ff5958;spacingTop=-3;spacingBottom=-3;spacingLeft=-3;spacingRight=-3;points=[];labelBackgroundColor=none;rounded=0;html=1;whiteSpace=wrap;container=0;" parent="1" vertex="1">
          <mxGeometry x="-91" y="113.88999999999999" width="152" height="130" as="geometry" />
        </mxCell>
        <mxCell id="hrTpGgg3rpqertAnfvy--14" value="&lt;div style=&quot;font-size: 1px&quot;&gt;&lt;font style=&quot;font-size:22.58px;font-family:Arial;color:#000000;direction:ltr;letter-spacing:0px;line-height:120%;opacity:1&quot;&gt;Браузер&amp;nbsp;&lt;/font&gt;&lt;/div&gt;&lt;div style=&quot;font-size: 1px&quot;&gt;&lt;font style=&quot;font-size:22.58px;font-family:Arial;color:#000000;direction:ltr;letter-spacing:0px;line-height:120%;opacity:1&quot;&gt;пользователя&lt;/font&gt;&lt;/div&gt;" style="verticalAlign=bottom;align=center;overflow=width;vsdxID=6;fillColor=none;gradientColor=none;strokeColor=none;spacingTop=-3;spacingBottom=-3;spacingLeft=-3;spacingRight=-3;points=[];labelBackgroundColor=none;rounded=0;html=1;whiteSpace=wrap;container=0;" parent="1" vertex="1">
          <mxGeometry x="-91" y="180.89" width="152" height="53" as="geometry" />
        </mxCell>
        <mxCell id="hrTpGgg3rpqertAnfvy--19" value="" style="group" parent="1" vertex="1" connectable="0">
          <mxGeometry x="-439" y="493.89" width="410" height="680.54" as="geometry" />
        </mxCell>
        <mxCell id="hrTpGgg3rpqertAnfvy--20" value="" style="shape=image;verticalLabelPosition=bottom;verticalAlign=top;imageAspect=0;aspect=fixed;image=data:image/svg+xml,PHN2ZyB4bWxucz0iaHR0cDovL3d3dy53My5vcmcvMjAwMC9zdmciIHdpZHRoPSIzMiIgaGVpZ2h0PSIzMiIgdmlld0JveD0iMCAwIDMyIDMyIiBmaWxsPSJub25lIj4mI3hhOzxwYXRoIGQ9Ik0wIDE2QzAgNy4xNjM0NCA3LjE2MzQ0IDAgMTYgMFYwQzI0LjgzNjYgMCAzMiA3LjE2MzQ0IDMyIDE2VjE2QzMyIDI0LjgzNjYgMjQuODM2NiAzMiAxNiAzMlYzMkM3LjE2MzQ0IDMyIDAgMjQuODM2NiAwIDE2VjE2WiIgZmlsbD0iIzUyODJGRiIvPiYjeGE7PHBhdGggZD0iTTExLjk5NSAyNEw3LjAwMDk4IDE3LjczOEw4Ljc4MTk4IDkuOTI3TDE2IDYuNDUzTDIzLjIxOCA5LjkyOEwyNC45OTkgMTcuNzM5TDIwLjAwNSAyNEgxMS45OTVaTTIwIDEzLjE5NkwxNS45OTkgMTAuODk5TDEyIDEzLjE5NlYxOC4xTDE2IDIwLjQwMUwyMCAxOC4xVjEzLjE5NlpNMTguNzggMTMuODk2SDE4Ljc4N0wxNiAxNS40OTlMMTMuMjE0IDEzLjg5NUgxMy4yMTlMMTUuOTk5IDEyLjI5OUwxOC43OCAxMy44OTZaIiBmaWxsPSJ3aGl0ZSIvPiYjeGE7PC9zdmc+;container=0;" parent="hrTpGgg3rpqertAnfvy--19" vertex="1">
          <mxGeometry x="43.99515151515152" y="86.14999999999996" width="27.69545454545455" height="27.69545454545455" as="geometry" />
        </mxCell>
        <mxCell id="hrTpGgg3rpqertAnfvy--21" value="&lt;div style=&quot;font-size: 1px&quot;&gt;&lt;font style=&quot;font-size:22.58px;font-family:Arial;color:#000000;direction:ltr;letter-spacing:0px;line-height:120%;opacity:1&quot;&gt;Kubernetes&lt;br&gt;&lt;/font&gt;&lt;/div&gt;&lt;div style=&quot;font-size: 1px&quot;&gt;&lt;font style=&quot;font-size:22.58px;font-family:Arial;color:#000000;direction:ltr;letter-spacing:0px;line-height:120%;opacity:1&quot;&gt;cluster 1&lt;/font&gt;&lt;/div&gt;" style="verticalAlign=middle;align=center;overflow=width;vsdxID=7;fillColor=none;gradientColor=none;shape=stencil(nZBLDoAgDERP0z3SIyjew0SURgSD+Lu9kMZoXLhwN9O+tukAlrNpJg1SzDH4QW/URgNYgZTkjA4UkwJUgGXng+6DX1zLfmoymdXo17xh5zmRJ6Q42BWCfc2oJfdAr+Yv+AP9Cb7OJ3H/2JG1HNGz/84klThPVCc=);strokeColor=none;points=[];labelBackgroundColor=none;rounded=0;html=1;whiteSpace=wrap;container=0;" parent="hrTpGgg3rpqertAnfvy--19" vertex="1">
          <mxGeometry x="9.696969696969697" width="116.36363636363637" height="86.13999999999999" as="geometry" />
        </mxCell>
        <mxCell id="hrTpGgg3rpqertAnfvy--22" style="vsdxID=6;fillColor=none;gradientColor=none;shape=stencil(vVNdD4IgFP01POIQms1nq//BEpVF4q6U9u/DoFJxPdjm2/04cO65cBDL2oo3AlHSGtAX0cncVIgdEKWyrgRIYyPEjohlhQZRgr7VucsbPiCH6Krvww29O0eGE5Q8XJaSaPcqnByWw9k2wWNZRFMHhzc+SlwhQHhATDxBj3kvWwzacCN1PSFXHEqBLRcuFC8nrbYTognKfjol65GSNIn28SL5SjGf2efL2UBMwO1nWykl3M1mzxJ8ib/eZHkrG8j47RMbfA1WSKWcP8f9uSFtyZmZHZ8=);strokeColor=#5282ff;spacingTop=-3;spacingBottom=-3;spacingLeft=-3;spacingRight=-3;points=[];labelBackgroundColor=none;rounded=0;html=1;whiteSpace=wrap;container=0;" parent="hrTpGgg3rpqertAnfvy--19" vertex="1">
          <mxGeometry x="-2.1599999999999966" width="320" height="133.70999999999998" as="geometry" />
        </mxCell>
        <mxCell id="JNt9-kuH4g4dh-vLSPPS-44" style="edgeStyle=orthogonalEdgeStyle;rounded=0;orthogonalLoop=1;jettySize=auto;html=1;entryX=0.5;entryY=0;entryDx=0;entryDy=0;" parent="1" source="hrTpGgg3rpqertAnfvy--22" target="JNt9-kuH4g4dh-vLSPPS-42" edge="1">
          <mxGeometry relative="1" as="geometry" />
        </mxCell>
        <mxCell id="hrTpGgg3rpqertAnfvy--26" value="" style="shape=image;verticalLabelPosition=bottom;verticalAlign=top;imageAspect=0;aspect=fixed;image=data:image/svg+xml,PHN2ZyB4bWxucz0iaHR0cDovL3d3dy53My5vcmcvMjAwMC9zdmciIHdpZHRoPSIzMiIgaGVpZ2h0PSIzMiIgdmlld0JveD0iMCAwIDMyIDMyIiBmaWxsPSJub25lIj4mI3hhOzxwYXRoIGQ9Ik0wIDE2QzAgNy4xNjM0NCA3LjE2MzQ0IDAgMTYgMFYwQzI0LjgzNjYgMCAzMiA3LjE2MzQ0IDMyIDE2VjE2QzMyIDI0LjgzNjYgMjQuODM2NiAzMiAxNiAzMlYzMkM3LjE2MzQ0IDMyIDAgMjQuODM2NiAwIDE2VjE2WiIgZmlsbD0iIzUyODJGRiIvPiYjeGE7PHBhdGggZD0iTTExLjk5NSAyNEw3LjAwMDk4IDE3LjczOEw4Ljc4MTk4IDkuOTI3TDE2IDYuNDUzTDIzLjIxOCA5LjkyOEwyNC45OTkgMTcuNzM5TDIwLjAwNSAyNEgxMS45OTVaTTIwIDEzLjE5NkwxNS45OTkgMTAuODk5TDEyIDEzLjE5NlYxOC4xTDE2IDIwLjQwMUwyMCAxOC4xVjEzLjE5NlpNMTguNzggMTMuODk2SDE4Ljc4N0wxNiAxNS40OTlMMTMuMjE0IDEzLjg5NUgxMy4yMTlMMTUuOTk5IDEyLjI5OUwxOC43OCAxMy44OTZaIiBmaWxsPSJ3aGl0ZSIvPiYjeGE7PC9zdmc+;container=0;" parent="1" vertex="1">
          <mxGeometry x="305" y="523.89" width="28.571428571428573" height="28.571428571428573" as="geometry" />
        </mxCell>
        <mxCell id="hrTpGgg3rpqertAnfvy--27" style="vsdxID=5;fillColor=none;gradientColor=none;shape=stencil(vVPLEoIgFP0aljgEVuPa6j+YRGUica6U9vdhUKk4LWzG3X0cOPdcOIilTclrgShpDOiLaGVmSsQOiFJZlQKksRFiR8TSXIMoQN+qzOU175F9dNX3/obOnSP9CUoeLktIFL8KJ4flcLZN8NhtRJiDwxsf7VwhQHjAhniCDvNONhi04UbqakSuOBQCWy6cK16MWk0rRB2U/XRKVgMlSRwl+1nyhWI+s0+Xs4KYgNvPtlBKuJvVniX4En+9yfxWVpDx2yc2+Bosl0o5fw77U0PakjMzOz4B);strokeColor=#ff5958;spacingTop=-3;spacingBottom=-3;spacingLeft=-3;spacingRight=-3;points=[];labelBackgroundColor=none;rounded=0;html=1;whiteSpace=wrap;container=0;" parent="1" vertex="1">
          <mxGeometry x="240" y="513.89" width="130" height="100" as="geometry" />
        </mxCell>
        <mxCell id="hrTpGgg3rpqertAnfvy--28" value="&lt;div style=&quot;font-size: 1px&quot;&gt;&lt;font style=&quot;font-size:22.58px;font-family:Arial;color:#000000;direction:ltr;letter-spacing:0px;line-height:120%;opacity:1&quot;&gt;InsureTech&lt;/font&gt;&lt;/div&gt;&lt;div style=&quot;font-size: 1px&quot;&gt;&lt;font style=&quot;font-size:22.58px;font-family:Arial;color:#000000;direction:ltr;letter-spacing:0px;line-height:120%;opacity:1&quot;&gt;namespace&lt;/font&gt;&lt;/div&gt;" style="verticalAlign=bottom;align=center;overflow=width;vsdxID=6;fillColor=none;gradientColor=none;strokeColor=none;spacingTop=-3;spacingBottom=-3;spacingLeft=-3;spacingRight=-3;points=[];labelBackgroundColor=none;rounded=0;html=1;whiteSpace=wrap;container=0;" parent="1" vertex="1">
          <mxGeometry x="240" y="553.89" width="130" height="54" as="geometry" />
        </mxCell>
        <mxCell id="hrTpGgg3rpqertAnfvy--37" value="" style="shape=image;verticalLabelPosition=bottom;verticalAlign=top;imageAspect=0;aspect=fixed;image=data:image/svg+xml,PHN2ZyB4bWxucz0iaHR0cDovL3d3dy53My5vcmcvMjAwMC9zdmciIHdpZHRoPSIzMiIgaGVpZ2h0PSIzMiIgdmlld0JveD0iMCAwIDMyIDMyIiBmaWxsPSJub25lIj4mI3hhOzxwYXRoIGQ9Ik0wIDE2QzAgNy4xNjM0NCA3LjE2MzQ0IDAgMTYgMFYwQzI0LjgzNjYgMCAzMiA3LjE2MzQ0IDMyIDE2VjE2QzMyIDI0LjgzNjYgMjQuODM2NiAzMiAxNiAzMlYzMkM3LjE2MzQ0IDMyIDAgMjQuODM2NiAwIDE2VjE2WiIgZmlsbD0iIzUyODJGRiIvPiYjeGE7PHBhdGggZD0iTTExLjk5NSAyNEw3LjAwMDk4IDE3LjczOEw4Ljc4MTk4IDkuOTI3TDE2IDYuNDUzTDIzLjIxOCA5LjkyOEwyNC45OTkgMTcuNzM5TDIwLjAwNSAyNEgxMS45OTVaTTIwIDEzLjE5NkwxNS45OTkgMTAuODk5TDEyIDEzLjE5NlYxOC4xTDE2IDIwLjQwMUwyMCAxOC4xVjEzLjE5NlpNMTguNzggMTMuODk2SDE4Ljc4N0wxNiAxNS40OTlMMTMuMjE0IDEzLjg5NUgxMy4yMTlMMTUuOTk5IDEyLjI5OUwxOC43OCAxMy44OTZaIiBmaWxsPSJ3aGl0ZSIvPiYjeGE7PC9zdmc+;container=0;" parent="1" vertex="1">
          <mxGeometry x="113.99515151515152" y="580.04" width="27.69545454545455" height="27.69545454545455" as="geometry" />
        </mxCell>
        <mxCell id="hrTpGgg3rpqertAnfvy--38" value="&lt;div style=&quot;font-size: 1px&quot;&gt;&lt;font style=&quot;font-size:22.58px;font-family:Arial;color:#000000;direction:ltr;letter-spacing:0px;line-height:120%;opacity:1&quot;&gt;Kubernetes&lt;br&gt;&lt;/font&gt;&lt;/div&gt;&lt;div style=&quot;font-size: 1px&quot;&gt;&lt;font style=&quot;font-size:22.58px;font-family:Arial;color:#000000;direction:ltr;letter-spacing:0px;line-height:120%;opacity:1&quot;&gt;cluster 1&lt;/font&gt;&lt;/div&gt;" style="verticalAlign=middle;align=center;overflow=width;vsdxID=7;fillColor=none;gradientColor=none;shape=stencil(nZBLDoAgDERP0z3SIyjew0SURgSD+Lu9kMZoXLhwN9O+tukAlrNpJg1SzDH4QW/URgNYgZTkjA4UkwJUgGXng+6DX1zLfmoymdXo17xh5zmRJ6Q42BWCfc2oJfdAr+Yv+AP9Cb7OJ3H/2JG1HNGz/84klThPVCc=);strokeColor=none;points=[];labelBackgroundColor=none;rounded=0;html=1;whiteSpace=wrap;container=0;" parent="1" vertex="1">
          <mxGeometry x="79.69696969696975" y="493.89" width="116.36363636363637" height="86.13999999999999" as="geometry" />
        </mxCell>
        <mxCell id="hrTpGgg3rpqertAnfvy--39" style="vsdxID=6;fillColor=none;gradientColor=none;shape=stencil(vVNdD4IgFP01POIQms1nq//BEpVF4q6U9u/DoFJxPdjm2/04cO65cBDL2oo3AlHSGtAX0cncVIgdEKWyrgRIYyPEjohlhQZRgr7VucsbPiCH6Krvww29O0eGE5Q8XJaSaPcqnByWw9k2wWNZRFMHhzc+SlwhQHhATDxBj3kvWwzacCN1PSFXHEqBLRcuFC8nrbYTognKfjol65GSNIn28SL5SjGf2efL2UBMwO1nWykl3M1mzxJ8ib/eZHkrG8j47RMbfA1WSKWcP8f9uSFtyZmZHZ8=);strokeColor=#5282ff;spacingTop=-3;spacingBottom=-3;spacingLeft=-3;spacingRight=-3;points=[];labelBackgroundColor=none;rounded=0;html=1;whiteSpace=wrap;container=0;" parent="1" vertex="1">
          <mxGeometry x="71.84000000000003" y="493.89" width="320" height="133.70999999999998" as="geometry" />
        </mxCell>
        <mxCell id="JNt9-kuH4g4dh-vLSPPS-74" style="edgeStyle=orthogonalEdgeStyle;rounded=0;orthogonalLoop=1;jettySize=auto;html=1;entryX=0.5;entryY=0;entryDx=0;entryDy=0;" parent="1" source="hrTpGgg3rpqertAnfvy--39" target="JNt9-kuH4g4dh-vLSPPS-72" edge="1">
          <mxGeometry relative="1" as="geometry" />
        </mxCell>
        <mxCell id="JNt9-kuH4g4dh-vLSPPS-4" value="&lt;div style=&quot;font-size: 1px&quot;&gt;&lt;font style=&quot;font-size:22.58px;font-family:Arial;color:#000000;direction:ltr;letter-spacing:0px;line-height:120%;opacity:1&quot;&gt;GSLB&lt;br&gt;&lt;/font&gt;&lt;/div&gt;" style="verticalAlign=middle;align=center;overflow=width;vsdxID=5;fillColor=#e3ebff;gradientColor=none;shape=stencil(vVNBDsIgEHwNRwxCjHqu+g9iaUtEaBa09fdSwdpi9dBDb8vOwOwsGcQyW/FaIEqsA3MRjcxdhdgBUSp1JUA6XyF2RCwrDIgSzE3n4VzzjtlVV3PvXmjDPdLdoOQRTrvtavNqnAKXw9mDELkBIhDJaxrJZIy/YRLfbjFvpcVgHHfS6JGu4lAK7GVwoXg5gmwjRP3VjoMpqQcm9tPKs0z0Y6crWcBHqt0PN8tJspXFfmNKdpaBH8tYwML/VPjiE6dCKhXSOMTT+PlWiC47PgE=);strokeColor=none;spacingTop=-3;spacingBottom=-3;spacingLeft=-3;spacingRight=-3;points=[];labelBackgroundColor=none;rounded=0;html=1;whiteSpace=wrap;" parent="1" vertex="1">
          <mxGeometry x="197.13" y="133.89" width="211" height="84" as="geometry" />
        </mxCell>
        <mxCell id="JNt9-kuH4g4dh-vLSPPS-3" value="" style="shape=image;verticalLabelPosition=bottom;verticalAlign=top;imageAspect=0;aspect=fixed;image=data:image/svg+xml,PHN2ZyB4bWxucz0iaHR0cDovL3d3dy53My5vcmcvMjAwMC9zdmciIHdpZHRoPSIzMiIgaGVpZ2h0PSIzMiIgdmlld0JveD0iMCAwIDMyIDMyIiBmaWxsPSJub25lIj4mI3hhOzxwYXRoIGQ9Ik0wIDE2QzAgNy4xNjM0NCA3LjE2MzQ0IDAgMTYgMFYwQzI0LjgzNjYgMCAzMiA3LjE2MzQ0IDMyIDE2VjE2QzMyIDI0LjgzNjYgMjQuODM2NiAzMiAxNiAzMlYzMkM3LjE2MzQ0IDMyIDAgMjQuODM2NiAwIDE2VjE2WiIgZmlsbD0iIzUyODJGRiIvPiYjeGE7PHBhdGggZD0iTTE3IDE3SDE5LjNDMTkuNyAxNy42IDIwLjMgMTggMjEgMThDMjIuMSAxOCAyMyAxNy4xIDIzIDE2QzIzIDE0LjkgMjIuMSAxNCAyMSAxNEMyMC4zIDE0IDE5LjYgMTQuNCAxOS4zIDE1SDE3VjExSDE5LjNDMTkuNyAxMS42IDIwLjMgMTIgMjEgMTJDMjIuMSAxMiAyMyAxMS4xIDIzIDEwQzIzIDguOSAyMi4xIDggMjEgOEMyMC4zIDggMTkuNiA4LjQgMTkuMyA5SDE3QzE1LjkgOSAxNSA5LjkgMTUgMTFWMTUuM0wxMCAxMlYxNUg3VjE3SDEwVjIwTDE1IDE2LjdWMjFDMTUgMjIuMSAxNS45IDIzIDE3IDIzSDE5LjNDMTkuNyAyMy42IDIwLjMgMjQgMjEgMjRDMjIuMSAyNCAyMyAyMy4xIDIzIDIyQzIzIDIwLjkgMjIuMSAyMCAyMSAyMEMyMC4zIDIwIDE5LjYgMjAuNCAxOS4zIDIxSDE3VjE3WiIgZmlsbD0id2hpdGUiLz4mI3hhOzwvc3ZnPg==;direction=south;" parent="1" vertex="1">
          <mxGeometry x="206.74" y="150.89" width="50" height="50" as="geometry" />
        </mxCell>
        <mxCell id="JNt9-kuH4g4dh-vLSPPS-2" value="" style="shape=image;verticalLabelPosition=bottom;verticalAlign=top;imageAspect=0;aspect=fixed;image=data:image/svg+xml,PHN2ZyB4bWxucz0iaHR0cDovL3d3dy53My5vcmcvMjAwMC9zdmciIGZpbGw9Im5vbmUiIHZpZXdCb3g9IjAgMCAzMiAzMiIgaGVpZ2h0PSIzMiIgd2lkdGg9IjMyIj4mI3hhOzxyZWN0IGZpbGw9IiM1MjgyRkYiIHJ4PSIxNiIgaGVpZ2h0PSIzMiIgd2lkdGg9IjMyIi8+JiN4YTs8cGF0aCBmaWxsPSJ3aGl0ZSIgZD0iTTggMjAuMDAyVjExSDEwLjE1QzExLjE3NSAxMSAxMS45MDcgMTEuMjI4IDEyLjM0MyAxMS42ODVDMTIuNzgxIDEyLjE0MyAxMyAxMi45MDcgMTMgMTMuOTc4VjE2LjQ5OEMxMy4wMDQgMTcuODUyIDEyLjgxMiAxOC43NzMgMTIuNDI1IDE5LjI2NEMxMi4wNCAxOS43NTQgMTEuMzExIDIwLjAwMSAxMC4yNCAyMC4wMDFMOCAyMC4wMDJaTTE0IDIwLjAwMlYxMUgxNkwxNy42OTIgMTcuNTk3VjExSDE5VjIwLjAwMUgxN0wxNS4zMSAxMy4zMzlWMjAuMDAxTDE0IDIwLjAwMlpNMjAuNDU1IDE5LjQxNUMyMC4xNTIgMTkuMDI0IDIwIDE4LjM4NiAyMCAxNy41MDRWMTcuMTYySDIxLjI4OFYxNy40MjJDMjEuMjgxIDE3Ljg0NCAyMS4zMzggMTguMTYgMjEuNDU4IDE4LjM3QzIxLjU3NiAxOC41ODEgMjEuNzU4IDE4LjY4NiAyMi4wMDEgMTguNjg2QzIyLjEwNzMgMTguNjkxNyAyMi4yMTMgMTguNjY4MSAyMi4zMDY4IDE4LjYxNzhDMjIuNDAwNiAxOC41Njc2IDIyLjQ3ODkgMTguNDkyNiAyMi41MzMgMTguNDAxQzIyLjY1MSAxOC4yMTEgMjIuNzA4IDE3LjkyNSAyMi43MDggMTcuNTQxQzIyLjcwOCAxNy4yNTYgMjIuNjM4IDE3LjAxMSAyMi40OTMgMTYuODAzQzIyLjM1MiAxNi41OTcgMjIuMTA0IDE2LjM3OCAyMS43NDggMTYuMTQ3QzIxLjEyOCAxNS43NDYgMjAuNjkzIDE1LjM1MyAyMC40NDcgMTQuOTYzQzIwLjE5OSAxNC41OCAyMC4wNzUgMTQuMTAzIDIwLjA3NSAxMy41MzNDMjAuMDc1IDEyLjY4NyAyMC4yNDEgMTIuMDUzIDIwLjU3MyAxMS42MzJDMjAuOTA3IDExLjIxMSAyMS40MDcgMTEgMjIuMDc1IDExQzIyLjc2MSAxMSAyMy4yNDUgMTEuMTk2IDIzLjUyOCAxMS41ODhDMjMuNzk1IDExLjk2IDIzLjkyNCAxMi41NTggMjMuOTIxIDEzLjM4NEwyMy45MjMgMTMuNTc2VjEzLjgzNkgyMi42MzVWMTMuNTc2QzIyLjY0MSAxMy4xMTQgMjIuNTk5IDEyLjc4OCAyMi41MDggMTIuNTk3QzIyLjQxOCAxMi40MDggMjIuMjYgMTIuMzEzIDIyLjAzNSAxMi4zMTNDMjEuOTM1NCAxMi4zMDc0IDIxLjgzNjEgMTIuMzI4OCAyMS43NDc3IDEyLjM3NTJDMjEuNjU5MyAxMi40MjE1IDIxLjU4NTEgMTIuNDkwOSAyMS41MzMgMTIuNTc2QzIxLjQyMSAxMi43NTIgMjEuMzY3IDEzLjAxNSAyMS4zNjcgMTMuMzY2QzIxLjM2NyAxMy42MzggMjEuNDMyIDEzLjg3MSAyMS41NjUgMTQuMDY2QzIxLjY5MyAxNC4yNiAyMS45MjMgMTQuNDYyIDIyLjI1MiAxNC42NzJDMjIuODk5IDE1LjA5NCAyMy4zNTIgMTUuNTA1IDIzLjYxMSAxNS45MDVDMjMuODcxIDE2LjMwNiAyNCAxNi43OTcgMjQgMTcuMzhDMjQgMTguMjU0IDIzLjgzMyAxOC45MSAyMy41MDEgMTkuMzQ1QzIzLjE2OCAxOS43ODEgMjIuNjY4IDE5Ljk5OSAyMiAxOS45OTlDMjEuMjcyIDE5Ljk5OSAyMC43NTYgMTkuODA0IDIwLjQ1NSAxOS40MTVaTTExLjEgMTguMjk1QzExLjI3NiAxOC4wNTggMTEuMzY1IDE3LjYwMiAxMS4zNjUgMTYuOTI2VjEzLjk1NEMxMS4zNjUgMTMuMzQ0IDExLjI2NyAxMi45MjUgMTEuMDY4IDEyLjY5NkMxMC44NzEgMTIuNDY2IDEwLjUwOCAxMi4zNTIgOS45OCAxMi4zNTJIOS42MzZWMTguNjQ4SDEwLjA2NkMxMC41NzcgMTguNjQ4IDEwLjkyMyAxOC41MyAxMS4xIDE4LjI5NlYxOC4yOTVaIi8+JiN4YTs8L3N2Zz4=;" parent="1" vertex="1">
          <mxGeometry x="346.63" y="150.89" width="50" height="50" as="geometry" />
        </mxCell>
        <mxCell id="JNt9-kuH4g4dh-vLSPPS-5" style="edgeStyle=orthogonalEdgeStyle;rounded=0;orthogonalLoop=1;jettySize=auto;html=1;entryX=-0.002;entryY=0.525;entryDx=0;entryDy=0;entryPerimeter=0;" parent="1" source="hrTpGgg3rpqertAnfvy--13" target="JNt9-kuH4g4dh-vLSPPS-4" edge="1">
          <mxGeometry relative="1" as="geometry" />
        </mxCell>
        <mxCell id="JNt9-kuH4g4dh-vLSPPS-6" style="edgeStyle=orthogonalEdgeStyle;rounded=0;orthogonalLoop=1;jettySize=auto;html=1;" parent="1" source="hrTpGgg3rpqertAnfvy--13" edge="1">
          <mxGeometry relative="1" as="geometry">
            <mxPoint x="-289" y="453.89" as="targetPoint" />
            <Array as="points">
              <mxPoint x="-14" y="353.89" />
              <mxPoint x="-289" y="353.89" />
            </Array>
          </mxGeometry>
        </mxCell>
        <mxCell id="JNt9-kuH4g4dh-vLSPPS-7" value="&lt;font style=&quot;font-size: 18px;&quot;&gt;Active failover&lt;/font&gt;" style="edgeLabel;html=1;align=center;verticalAlign=middle;resizable=0;points=[];" parent="JNt9-kuH4g4dh-vLSPPS-6" vertex="1" connectable="0">
          <mxGeometry x="-0.2404" relative="1" as="geometry">
            <mxPoint x="-53" as="offset" />
          </mxGeometry>
        </mxCell>
        <mxCell id="JNt9-kuH4g4dh-vLSPPS-8" style="edgeStyle=orthogonalEdgeStyle;rounded=0;orthogonalLoop=1;jettySize=auto;html=1;entryX=0.421;entryY=0.003;entryDx=0;entryDy=0;entryPerimeter=0;" parent="1" source="hrTpGgg3rpqertAnfvy--14" target="JNt9-kuH4g4dh-vLSPPS-78" edge="1">
          <mxGeometry relative="1" as="geometry">
            <mxPoint x="710" y="353.89" as="targetPoint" />
            <Array as="points">
              <mxPoint x="-14" y="353.89" />
              <mxPoint x="198" y="353.89" />
            </Array>
          </mxGeometry>
        </mxCell>
        <mxCell id="JNt9-kuH4g4dh-vLSPPS-9" value="&lt;font style=&quot;font-size: 18px;&quot;&gt;Active failover&lt;/font&gt;" style="edgeLabel;html=1;align=center;verticalAlign=middle;resizable=0;points=[];" parent="JNt9-kuH4g4dh-vLSPPS-8" vertex="1" connectable="0">
          <mxGeometry x="-0.2064" y="2" relative="1" as="geometry">
            <mxPoint x="31" as="offset" />
          </mxGeometry>
        </mxCell>
        <mxCell id="JNt9-kuH4g4dh-vLSPPS-12" style="edgeStyle=orthogonalEdgeStyle;rounded=0;orthogonalLoop=1;jettySize=auto;html=1;" parent="1" source="JNt9-kuH4g4dh-vLSPPS-4" edge="1">
          <mxGeometry relative="1" as="geometry">
            <mxPoint x="-361" y="453.89" as="targetPoint" />
            <Array as="points">
              <mxPoint x="303" y="43.889999999999986" />
              <mxPoint x="-361" y="43.889999999999986" />
            </Array>
          </mxGeometry>
        </mxCell>
        <mxCell id="JNt9-kuH4g4dh-vLSPPS-13" value="&lt;font style=&quot;font-size: 18px;&quot;&gt;health check&lt;/font&gt;" style="edgeLabel;html=1;align=center;verticalAlign=middle;resizable=0;points=[];" parent="JNt9-kuH4g4dh-vLSPPS-12" vertex="1" connectable="0">
          <mxGeometry x="-0.177" y="1" relative="1" as="geometry">
            <mxPoint as="offset" />
          </mxGeometry>
        </mxCell>
        <mxCell id="JNt9-kuH4g4dh-vLSPPS-17" style="vsdxID=5;fillColor=none;gradientColor=none;shape=stencil(vVPLEoIgFP0aljgEVuPa6j+YRGUica6U9vdhUKk4LWzG3X0cOPdcOIilTclrgShpDOiLaGVmSsQOiFJZlQKksRFiR8TSXIMoQN+qzOU175F9dNX3/obOnSP9CUoeLktIFL8KJ4flcLZN8NhtRJiDwxsf7VwhQHjAhniCDvNONhi04UbqakSuOBQCWy6cK16MWk0rRB2U/XRKVgMlSRwl+1nyhWI+s0+Xs4KYgNvPtlBKuJvVniX4En+9yfxWVpDx2yc2+Bosl0o5fw77U0PakjMzOz4B);strokeColor=#ff5958;spacingTop=-3;spacingBottom=-3;spacingLeft=-3;spacingRight=-3;points=[];labelBackgroundColor=none;rounded=0;html=1;whiteSpace=wrap;container=0;" parent="1" vertex="1">
          <mxGeometry x="-351" y="923.89" width="130" height="105.5" as="geometry" />
        </mxCell>
        <mxCell id="JNt9-kuH4g4dh-vLSPPS-18" value="&lt;div style=&quot;font-size: 1px&quot;&gt;&lt;font style=&quot;font-size:22.58px;font-family:Arial;color:#000000;direction:ltr;letter-spacing:0px;line-height:120%;opacity:1&quot;&gt;PosrgreSQL&lt;br&gt;&lt;/font&gt;&lt;/div&gt;&lt;div style=&quot;font-size: 1px&quot;&gt;&lt;font style=&quot;font-size:22.58px;font-family:Arial;color:#000000;direction:ltr;letter-spacing:0px;line-height:120%;opacity:1&quot;&gt;(sh1-rep1)&lt;/font&gt;&lt;/div&gt;" style="verticalAlign=bottom;align=center;overflow=width;vsdxID=6;fillColor=none;gradientColor=none;strokeColor=none;spacingTop=-3;spacingBottom=-3;spacingLeft=-3;spacingRight=-3;points=[];labelBackgroundColor=none;rounded=0;html=1;whiteSpace=wrap;container=0;" parent="1" vertex="1">
          <mxGeometry x="-351" y="968.89" width="130" height="53.21" as="geometry" />
        </mxCell>
        <mxCell id="JNt9-kuH4g4dh-vLSPPS-19" value="" style="shape=image;verticalLabelPosition=bottom;verticalAlign=top;imageAspect=0;aspect=fixed;image=data:image/svg+xml,PHN2ZyB4bWxucz0iaHR0cDovL3d3dy53My5vcmcvMjAwMC9zdmciIHdpZHRoPSIzMiIgaGVpZ2h0PSIzMiIgdmlld0JveD0iMCAwIDMyIDMyIiBmaWxsPSJub25lIj4mI3hhOzxwYXRoIGQ9Ik0wIDE2QzAgNy4xNjM0NCA3LjE2MzQ0IDAgMTYgMFYwQzI0LjgzNjYgMCAzMiA3LjE2MzQ0IDMyIDE2VjE2QzMyIDI0LjgzNjYgMjQuODM2NiAzMiAxNiAzMlYzMkM3LjE2MzQ0IDMyIDAgMjQuODM2NiAwIDE2VjE2WiIgZmlsbD0iIzUyODJGRiIvPiYjeGE7PHBhdGggZmlsbC1ydWxlPSJldmVub2RkIiBjbGlwLXJ1bGU9ImV2ZW5vZGQiIGQ9Ik0xMyA4SDE4QzIxLjMgOCAyNCAxMC43IDI0IDE0VjI0SDIwVjIwSDIyVjE5SDE4LjZDMTUuNSAxOSAxMyAxNi41IDEzIDEzLjRWOFpNMTkgMTdIMjFWMTVIMTlWMTdaTTEyIDkuMDk5OThWMTMuNEMxMiAxNi44IDE0LjYgMTkuNyAxOCAyMC4xVjIwLjZDMTggMjIgMTUuOCAyMy4xIDEzIDIzLjFDMTAuMiAyMy4xIDggMjIgOCAyMC42VjExLjZDOCAxMC4zIDkuNyA5LjI5OTk4IDEyIDkuMDk5OThaIiBmaWxsPSJ3aGl0ZSIvPiYjeGE7PC9zdmc+;container=0;" parent="1" vertex="1">
          <mxGeometry x="-306.5" y="927.89" width="36.26923076923077" height="36.26923076923077" as="geometry" />
        </mxCell>
        <mxCell id="JNt9-kuH4g4dh-vLSPPS-20" style="vsdxID=5;fillColor=#f5f5f5;shape=stencil(vVPLEoIgFP0aljgEVuPa6j+YRGUica6U9vdhUKk4LWzG3X0cOPdcOIilTclrgShpDOiLaGVmSsQOiFJZlQKksRFiR8TSXIMoQN+qzOU175F9dNX3/obOnSP9CUoeLktIFL8KJ4flcLZN8NhtRJiDwxsf7VwhQHjAhniCDvNONhi04UbqakSuOBQCWy6cK16MWk0rRB2U/XRKVgMlSRwl+1nyhWI+s0+Xs4KYgNvPtlBKuJvVniX4En+9yfxWVpDx2yc2+Bosl0o5fw77U0PakjMzOz4B);strokeColor=#666666;spacingTop=-3;spacingBottom=-3;spacingLeft=-3;spacingRight=-3;points=[];labelBackgroundColor=none;rounded=0;html=1;whiteSpace=wrap;container=0;fontColor=#333333;" parent="1" vertex="1">
          <mxGeometry x="-200" y="922.89" width="130" height="105.5" as="geometry" />
        </mxCell>
        <mxCell id="JNt9-kuH4g4dh-vLSPPS-21" value="&lt;div style=&quot;font-size: 1px&quot;&gt;&lt;font style=&quot;font-size:22.58px;font-family:Arial;color:#000000;direction:ltr;letter-spacing:0px;line-height:120%;opacity:1&quot;&gt;PosrgreSQL&lt;br&gt;&lt;/font&gt;&lt;/div&gt;&lt;div style=&quot;font-size: 1px&quot;&gt;&lt;font style=&quot;font-size:22.58px;font-family:Arial;color:#000000;direction:ltr;letter-spacing:0px;line-height:120%;opacity:1&quot;&gt;(sh2-rep2)&lt;/font&gt;&lt;/div&gt;" style="verticalAlign=bottom;align=center;overflow=width;vsdxID=6;fillColor=none;gradientColor=none;strokeColor=none;spacingTop=-3;spacingBottom=-3;spacingLeft=-3;spacingRight=-3;points=[];labelBackgroundColor=none;rounded=0;html=1;whiteSpace=wrap;container=0;" parent="1" vertex="1">
          <mxGeometry x="-200" y="967.89" width="130" height="53.21" as="geometry" />
        </mxCell>
        <mxCell id="JNt9-kuH4g4dh-vLSPPS-22" value="" style="shape=image;verticalLabelPosition=bottom;verticalAlign=top;imageAspect=0;aspect=fixed;image=data:image/svg+xml,PHN2ZyB4bWxucz0iaHR0cDovL3d3dy53My5vcmcvMjAwMC9zdmciIHdpZHRoPSIzMiIgaGVpZ2h0PSIzMiIgdmlld0JveD0iMCAwIDMyIDMyIiBmaWxsPSJub25lIj4mI3hhOzxwYXRoIGQ9Ik0wIDE2QzAgNy4xNjM0NCA3LjE2MzQ0IDAgMTYgMFYwQzI0LjgzNjYgMCAzMiA3LjE2MzQ0IDMyIDE2VjE2QzMyIDI0LjgzNjYgMjQuODM2NiAzMiAxNiAzMlYzMkM3LjE2MzQ0IDMyIDAgMjQuODM2NiAwIDE2VjE2WiIgZmlsbD0iIzUyODJGRiIvPiYjeGE7PHBhdGggZmlsbC1ydWxlPSJldmVub2RkIiBjbGlwLXJ1bGU9ImV2ZW5vZGQiIGQ9Ik0xMyA4SDE4QzIxLjMgOCAyNCAxMC43IDI0IDE0VjI0SDIwVjIwSDIyVjE5SDE4LjZDMTUuNSAxOSAxMyAxNi41IDEzIDEzLjRWOFpNMTkgMTdIMjFWMTVIMTlWMTdaTTEyIDkuMDk5OThWMTMuNEMxMiAxNi44IDE0LjYgMTkuNyAxOCAyMC4xVjIwLjZDMTggMjIgMTUuOCAyMy4xIDEzIDIzLjFDMTAuMiAyMy4xIDggMjIgOCAyMC42VjExLjZDOCAxMC4zIDkuNyA5LjI5OTk4IDEyIDkuMDk5OThaIiBmaWxsPSJ3aGl0ZSIvPiYjeGE7PC9zdmc+;container=0;" parent="1" vertex="1">
          <mxGeometry x="-155.5" y="926.89" width="36.26923076923077" height="36.26923076923077" as="geometry" />
        </mxCell>
        <mxCell id="JNt9-kuH4g4dh-vLSPPS-27" value="HAProxy" style="shape=image;verticalLabelPosition=bottom;verticalAlign=top;imageAspect=0;aspect=fixed;image=data:image/svg+xml,PHN2ZyB4bWxucz0iaHR0cDovL3d3dy53My5vcmcvMjAwMC9zdmciIHdpZHRoPSIzMiIgaGVpZ2h0PSIzMiIgdmlld0JveD0iMCAwIDMyIDMyIiBmaWxsPSJub25lIj4mI3hhOzxwYXRoIGQ9Ik0wIDE2QzAgNy4xNjM0NCA3LjE2MzQ0IDAgMTYgMFYwQzI0LjgzNjYgMCAzMiA3LjE2MzQ0IDMyIDE2VjE2QzMyIDI0LjgzNjYgMjQuODM2NiAzMiAxNiAzMlYzMkM3LjE2MzQ0IDMyIDAgMjQuODM2NiAwIDE2VjE2WiIgZmlsbD0iIzUyODJGRiIvPiYjeGE7PHBhdGggZD0iTTE3IDE3SDE5LjNDMTkuNyAxNy42IDIwLjMgMTggMjEgMThDMjIuMSAxOCAyMyAxNy4xIDIzIDE2QzIzIDE0LjkgMjIuMSAxNCAyMSAxNEMyMC4zIDE0IDE5LjYgMTQuNCAxOS4zIDE1SDE3VjExSDE5LjNDMTkuNyAxMS42IDIwLjMgMTIgMjEgMTJDMjIuMSAxMiAyMyAxMS4xIDIzIDEwQzIzIDguOSAyMi4xIDggMjEgOEMyMC4zIDggMTkuNiA4LjQgMTkuMyA5SDE3QzE1LjkgOSAxNSA5LjkgMTUgMTFWMTUuM0wxMCAxMlYxNUg3VjE3SDEwVjIwTDE1IDE2LjdWMjFDMTUgMjIuMSAxNS45IDIzIDE3IDIzSDE5LjNDMTkuNyAyMy42IDIwLjMgMjQgMjEgMjRDMjIuMSAyNCAyMyAyMy4xIDIzIDIyQzIzIDIwLjkgMjIuMSAyMCAyMSAyMEMyMC4zIDIwIDE5LjYgMjAuNCAxOS4zIDIxSDE3VjE3WiIgZmlsbD0id2hpdGUiLz4mI3hhOzwvc3ZnPg==;fontSize=20;strokeWidth=20;" parent="1" vertex="1">
          <mxGeometry x="-302.84000000000003" y="791.59" width="45.68" height="45.68" as="geometry" />
        </mxCell>
        <mxCell id="JNt9-kuH4g4dh-vLSPPS-28" value="Patroni&#xa;cluster" style="shape=image;verticalLabelPosition=bottom;verticalAlign=top;imageAspect=0;aspect=fixed;image=data:image/svg+xml,PHN2ZyB4bWxucz0iaHR0cDovL3d3dy53My5vcmcvMjAwMC9zdmciIHdpZHRoPSIzMiIgaGVpZ2h0PSIzMiIgdmlld0JveD0iMCAwIDMyIDMyIiBmaWxsPSJub25lIj4mI3hhOzxwYXRoIGQ9Ik0wIDE2QzAgNy4xNjM0NCA3LjE2MzQ0IDAgMTYgMFYwQzI0LjgzNjYgMCAzMiA3LjE2MzQ0IDMyIDE2VjE2QzMyIDI0LjgzNjYgMjQuODM2NiAzMiAxNiAzMlYzMkM3LjE2MzQ0IDMyIDAgMjQuODM2NiAwIDE2VjE2WiIgZmlsbD0iIzUyODJGRiIvPiYjeGE7PHBhdGggZmlsbC1ydWxlPSJldmVub2RkIiBjbGlwLXJ1bGU9ImV2ZW5vZGQiIGQ9Ik0xMyA4SDE4QzIxLjMgOCAyNCAxMC43IDI0IDE0VjI0SDIwVjIwSDIyVjE5SDE4LjZDMTUuNSAxOSAxMyAxNi41IDEzIDEzLjRWOFpNMTkgMTdIMjFWMTVIMTlWMTdaTTEyIDkuMDk5OThWMTMuNEMxMiAxNi44IDE0LjYgMTkuNyAxOCAyMC4xVjIwLjZDMTggMjIgMTUuOCAyMy4xIDEzIDIzLjFDMTAuMiAyMy4xIDggMjIgOCAyMC42VjExLjZDOCAxMC4zIDkuNyA5LjI5OTk4IDEyIDkuMDk5OThaIiBmaWxsPSJ3aGl0ZSIvPiYjeGE7PC9zdmc+;container=0;fontSize=20;" parent="1" vertex="1">
          <mxGeometry x="-572" y="927.89" width="46.27" height="46.27" as="geometry" />
        </mxCell>
        <mxCell id="JNt9-kuH4g4dh-vLSPPS-36" style="edgeStyle=orthogonalEdgeStyle;rounded=0;orthogonalLoop=1;jettySize=auto;html=1;entryX=0.499;entryY=-0.028;entryDx=0;entryDy=0;entryPerimeter=0;" parent="1" source="JNt9-kuH4g4dh-vLSPPS-27" target="hrTpGgg3rpqertAnfvy--9" edge="1">
          <mxGeometry relative="1" as="geometry" />
        </mxCell>
        <mxCell id="JNt9-kuH4g4dh-vLSPPS-37" style="edgeStyle=orthogonalEdgeStyle;rounded=0;orthogonalLoop=1;jettySize=auto;html=1;entryX=0.75;entryY=0;entryDx=0;entryDy=0;" parent="1" source="JNt9-kuH4g4dh-vLSPPS-27" target="JNt9-kuH4g4dh-vLSPPS-19" edge="1">
          <mxGeometry relative="1" as="geometry" />
        </mxCell>
        <mxCell id="JNt9-kuH4g4dh-vLSPPS-38" style="edgeStyle=orthogonalEdgeStyle;rounded=0;orthogonalLoop=1;jettySize=auto;html=1;entryX=0.491;entryY=0.01;entryDx=0;entryDy=0;entryPerimeter=0;" parent="1" source="JNt9-kuH4g4dh-vLSPPS-27" target="JNt9-kuH4g4dh-vLSPPS-20" edge="1">
          <mxGeometry relative="1" as="geometry" />
        </mxCell>
        <mxCell id="JNt9-kuH4g4dh-vLSPPS-39" style="edgeStyle=orthogonalEdgeStyle;rounded=0;orthogonalLoop=1;jettySize=auto;html=1;entryX=0.425;entryY=1.006;entryDx=0;entryDy=0;entryPerimeter=0;exitX=0.538;exitY=1.025;exitDx=0;exitDy=0;exitPerimeter=0;dashed=1;" parent="1" source="hrTpGgg3rpqertAnfvy--9" target="JNt9-kuH4g4dh-vLSPPS-17" edge="1">
          <mxGeometry relative="1" as="geometry">
            <Array as="points">
              <mxPoint x="-428" y="1063.8899999999999" />
              <mxPoint x="-296" y="1063.8899999999999" />
            </Array>
          </mxGeometry>
        </mxCell>
        <mxCell id="Hn5-TI-IFNBs16-RggJM-7" value="&lt;font style=&quot;font-size: 16px;&quot;&gt;Репликация&lt;/font&gt;" style="edgeLabel;html=1;align=center;verticalAlign=middle;resizable=0;points=[];" parent="JNt9-kuH4g4dh-vLSPPS-39" vertex="1" connectable="0">
          <mxGeometry x="0.1936" y="2" relative="1" as="geometry">
            <mxPoint x="-27" as="offset" />
          </mxGeometry>
        </mxCell>
        <mxCell id="JNt9-kuH4g4dh-vLSPPS-40" style="edgeStyle=orthogonalEdgeStyle;rounded=0;orthogonalLoop=1;jettySize=auto;html=1;entryX=0.499;entryY=1.002;entryDx=0;entryDy=0;entryPerimeter=0;exitX=0.538;exitY=1.015;exitDx=0;exitDy=0;exitPerimeter=0;dashed=1;" parent="1" source="hrTpGgg3rpqertAnfvy--9" target="JNt9-kuH4g4dh-vLSPPS-60" edge="1">
          <mxGeometry relative="1" as="geometry">
            <Array as="points">
              <mxPoint x="-428" y="1083.8899999999999" />
              <mxPoint x="379" y="1083.8899999999999" />
            </Array>
          </mxGeometry>
        </mxCell>
        <mxCell id="JNt9-kuH4g4dh-vLSPPS-41" value="&lt;font style=&quot;font-size: 16px;&quot;&gt;Репликация&lt;/font&gt;" style="edgeLabel;html=1;align=center;verticalAlign=middle;resizable=0;points=[];" parent="JNt9-kuH4g4dh-vLSPPS-40" vertex="1" connectable="0">
          <mxGeometry x="-0.2858" y="4" relative="1" as="geometry">
            <mxPoint x="140" y="4" as="offset" />
          </mxGeometry>
        </mxCell>
        <mxCell id="JNt9-kuH4g4dh-vLSPPS-43" style="edgeStyle=orthogonalEdgeStyle;rounded=0;orthogonalLoop=1;jettySize=auto;html=1;entryX=0.5;entryY=0;entryDx=0;entryDy=0;" parent="1" source="JNt9-kuH4g4dh-vLSPPS-42" target="JNt9-kuH4g4dh-vLSPPS-27" edge="1">
          <mxGeometry relative="1" as="geometry" />
        </mxCell>
        <mxCell id="Hn5-TI-IFNBs16-RggJM-9" style="edgeStyle=orthogonalEdgeStyle;rounded=0;orthogonalLoop=1;jettySize=auto;html=1;entryX=0;entryY=0.5;entryDx=0;entryDy=0;startArrow=classic;startFill=1;" parent="1" source="JNt9-kuH4g4dh-vLSPPS-42" target="JNt9-kuH4g4dh-vLSPPS-72" edge="1">
          <mxGeometry relative="1" as="geometry" />
        </mxCell>
        <mxCell id="JNt9-kuH4g4dh-vLSPPS-42" value="Citus worker" style="shape=image;verticalLabelPosition=bottom;labelBackgroundColor=#ffffff;verticalAlign=top;aspect=fixed;imageAspect=0;image=data:image/svg+xml,PHN2ZyB4bWxucz0iaHR0cDovL3d3dy53My5vcmcvMjAwMC9zdmciIHdpZHRoPSIzMiIgaGVpZ2h0PSIzMiIgdmlld0JveD0iMCAwIDMyIDMyIiBmaWxsPSJub25lIj4mI3hhOzxwYXRoIGQ9Ik0wIDE2QzAgNy4xNjM0NCA3LjE2MzQ0IDAgMTYgMEMyNC44MzY2IDAgMzIgNy4xNjM0NCAzMiAxNkMzMiAyNC44MzY2IDI0LjgzNjYgMzIgMTYgMzJDNy4xNjM0NCAzMiAwIDI0LjgzNjYgMCAxNloiIGZpbGw9IiM1MjgyRkYiLz4mI3hhOzxwYXRoIGZpbGwtcnVsZT0iZXZlbm9kZCIgY2xpcC1ydWxlPSJldmVub2RkIiBkPSJNMTkgMjEuNDkyQzE5IDIxLjI2NSAxOS4wNTEgMjEuMDUyIDE5LjE0NiAyMC44NTJMMTcuMjk4IDE4Ljk5OEgxNlYxOS42NzhDMTYgMjAuNDEyIDE1LjQwOCAyMC45OTggMTQuNjc5IDIwLjk5OEg5LjMyQzguNTkxIDIwLjk5OCA4IDIwLjQxMiA4IDE5LjY3OFYxMS4zMTlDOCAxMC41ODYgOC41OTIgOS45OTkwMSA5LjMyMSA5Ljk5OTAxSDE0LjY4QzE1LjQxIDkuOTk5MDEgMTYuMDAxIDEwLjU4NiAxNi4wMDEgMTEuMzE5VjExLjk5OUgxNy4yOTlMMTkuMTQ2IDEwLjE0NkMxOS4wMzYxIDkuOTE3NDkgMTguOTg2IDkuNjY0OCAxOS4wMDA0IDkuNDExNjNDMTkuMDE0OSA5LjE1ODQ2IDE5LjA5MzQgOC45MTMxMiAxOS4yMjg3IDguNjk4NjFDMTkuMzYzOSA4LjQ4NDEgMTkuNTUxNCA4LjMwNzQ3IDE5Ljc3MzYgOC4xODUyN0MxOS45OTU4IDguMDYzMDggMjAuMjQ1NCA3Ljk5OTMzIDIwLjQ5OSA4LjAwMDAxQzIwLjcyNDIgNy45OTk5MSAyMC45NDY2IDguMDUwNTQgMjEuMTQ5NiA4LjE0ODEzQzIxLjM1MjUgOC4yNDU3MiAyMS41MzA5IDguMzg3NzYgMjEuNjcxNSA4LjU2MzcyQzIxLjgxMjEgOC43Mzk2OCAyMS45MTEyIDguOTQ1MDMgMjEuOTYxNiA5LjE2NDU1QzIyLjAxMiA5LjM4NDA3IDIyLjAxMjMgOS42MTIxMSAyMS45NjI1IDkuODMxNzVDMjEuOTEyNiAxMC4wNTE0IDIxLjgxNCAxMC4yNTcgMjEuNjczOSAxMC40MzMzQzIxLjUzMzcgMTAuNjA5NiAyMS4zNTU3IDEwLjc1MjEgMjEuMTUzIDEwLjg1MDJDMjAuOTUwMiAxMC45NDgzIDIwLjcyOCAxMC45OTk1IDIwLjUwMjggMTFDMjAuMjc3NiAxMS4wMDA1IDIwLjA1NTEgMTAuOTUwMiAxOS44NTIgMTAuODUzTDE3Ljg2IDEyLjg1M0MxNy43NjU4IDEyLjk0NjIgMTcuNjM4NSAxMi45OTgzIDE3LjUwNiAxMi45OThIMTZWMTQuOTk4SDIxLjA4MkMyMS4yODggMTQuNDExIDIxLjg0NCAxMy45OTggMjIuNDk4IDEzLjk5OEMyMi44OTU4IDEzLjk5OCAyMy4yNzc0IDE0LjE1NiAyMy41NTg3IDE0LjQzNzNDMjMuODQgMTQuNzE4NiAyMy45OTggMTUuMTAwMiAyMy45OTggMTUuNDk4QzIzLjk5OCAxNS44OTU4IDIzLjg0IDE2LjI3NzQgMjMuNTU4NyAxNi41NTg3QzIzLjI3NzQgMTYuODQgMjIuODk1OCAxNi45OTggMjIuNDk4IDE2Ljk5OEMyMS44NDQgMTYuOTk4IDIxLjI4OCAxNi41ODQgMjEuMDgyIDE1Ljk5OEgxNlYxNy45OThIMTcuNTA2QzE3LjYzOCAxNy45OTggMTcuNzY2IDE4LjA1MSAxNy44NiAxOC4xNDRMMTkuODUzIDIwLjE0NEMyMC4wODEyIDIwLjAzMzYgMjAuMzMzNiAxOS45ODMgMjAuNTg2NyAxOS45OTY4QzIwLjgzOTggMjAuMDEwNiAyMS4wODUzIDIwLjA4ODUgMjEuMzAwMSAyMC4yMjMxQzIxLjUxNDggMjAuMzU3OCAyMS42OTE5IDIwLjU0NDcgMjEuODE0NyAyMC43NjY1QzIxLjkzNzUgMjAuOTg4MiAyMi4wMDE5IDIxLjIzNzUgMjIuMDAyIDIxLjQ5MUMyMi4wMDI5IDIxLjY4ODcgMjEuOTY0NyAyMS44ODQ3IDIxLjg4OTYgMjIuMDY3NkMyMS44MTQ2IDIyLjI1MDYgMjEuNzA0IDIyLjQxNjggMjEuNTY0NCAyMi41NTY5QzIxLjQyNDggMjIuNjk3IDIxLjI1ODkgMjIuODA4IDIxLjA3NjMgMjIuODgzN0MyMC44OTM2IDIyLjk1OTQgMjAuNjk3NyAyMi45OTgzIDIwLjUgMjIuOTk4QzIwLjMwMjMgMjIuOTk4MyAyMC4xMDY2IDIyLjk1OTUgMTkuOTI0IDIyLjg4MzhDMTkuNzQxNCAyMi44MDgyIDE5LjU3NTUgMjIuNjk3MiAxOS40MzU5IDIyLjU1NzNDMTkuMjk2MyAyMi40MTczIDE5LjE4NTggMjIuMjUxMSAxOS4xMTA2IDIyLjA2ODNDMTkuMDM1NSAyMS44ODU1IDE4Ljk5NzIgMjEuNjg5NyAxOC45OTggMjEuNDkySDE5Wk0xNSAxNy41MDVWMTcuNDkyQzE0Ljk5ODQgMTcuMzYwOCAxNC45NDUzIDE3LjIzNTQgMTQuODUyMiAxNy4xNDNDMTQuNzU5IDE3LjA1MDYgMTQuNjMzMiAxNi45OTg1IDE0LjUwMiAxNi45OThIOS40OThDOS4zNjY3NyAxNi45OTg1IDkuMjQxMDEgMTcuMDUwNiA5LjE0Nzg0IDE3LjE0M0M5LjA1NDY3IDE3LjIzNTQgOS4wMDE1NyAxNy4zNjA4IDkgMTcuNDkyVjE3LjUwNUM5LjAwMTgzIDE3LjYzNjEgOS4wNTUwNSAxNy43NjExIDkuMTQ4MTkgMTcuODUzM0M5LjI0MTMyIDE3Ljk0NTUgOS4zNjY5NCAxNy45OTc1IDkuNDk4IDE3Ljk5OEgxNC41MDJDMTQuNjMzMSAxNy45OTc1IDE0Ljc1ODcgMTcuOTQ1NSAxNC44NTE4IDE3Ljg1MzNDMTQuOTQ1IDE3Ljc2MTEgMTQuOTk4MiAxNy42MzYxIDE1IDE3LjUwNVpNMTUgMTMuNTA1VjEzLjQ5MkMxNC45OTgyIDEzLjM2MSAxNC45NDUgMTMuMjM1OSAxNC44NTE4IDEzLjE0MzdDMTQuNzU4NyAxMy4wNTE1IDE0LjYzMzEgMTIuOTk5NSAxNC41MDIgMTIuOTk5SDkuNDk4QzkuMzY2OTQgMTIuOTk5NSA5LjI0MTMyIDEzLjA1MTUgOS4xNDgxOSAxMy4xNDM3QzkuMDU1MDUgMTMuMjM1OSA5LjAwMTgzIDEzLjM2MSA5IDEzLjQ5MlYxMy41MDZDOS4wMDIwOSAxMy42MzY5IDkuMDU1NDIgMTMuNzYxNyA5LjE0ODUzIDEzLjg1MzdDOS4yNDE2NCAxMy45NDU3IDkuMzY3MTEgMTMuOTk3NSA5LjQ5OCAxMy45OThIMTQuNTAyQzE0LjYzMjkgMTMuOTk3NSAxNC43NTg0IDEzLjk0NTcgMTQuODUxNSAxMy44NTM3QzE0Ljk0NDYgMTMuNzYxNyAxNC45OTc5IDEzLjYzNjkgMTUgMTMuNTA2VjEzLjUwNVoiIGZpbGw9IndoaXRlIi8+JiN4YTs8L3N2Zz4=;fontSize=20;" parent="1" vertex="1">
          <mxGeometry x="-307.15999999999997" y="688" width="50" height="50" as="geometry" />
        </mxCell>
        <mxCell id="JNt9-kuH4g4dh-vLSPPS-54" style="vsdxID=5;fillColor=none;gradientColor=none;shape=stencil(vVPLEoIgFP0aljgEVuPa6j+YRGUica6U9vdhUKk4LWzG3X0cOPdcOIilTclrgShpDOiLaGVmSsQOiFJZlQKksRFiR8TSXIMoQN+qzOU175F9dNX3/obOnSP9CUoeLktIFL8KJ4flcLZN8NhtRJiDwxsf7VwhQHjAhniCDvNONhi04UbqakSuOBQCWy6cK16MWk0rRB2U/XRKVgMlSRwl+1nyhWI+s0+Xs4KYgNvPtlBKuJvVniX4En+9yfxWVpDx2yc2+Bosl0o5fw77U0PakjMzOz4B);strokeColor=#ff5958;spacingTop=-3;spacingBottom=-3;spacingLeft=-3;spacingRight=-3;points=[];labelBackgroundColor=none;rounded=0;html=1;whiteSpace=wrap;container=0;" parent="1" vertex="1">
          <mxGeometry x="16" y="924.89" width="130" height="105.5" as="geometry" />
        </mxCell>
        <mxCell id="JNt9-kuH4g4dh-vLSPPS-55" value="&lt;div style=&quot;font-size: 1px&quot;&gt;&lt;font style=&quot;font-size:22.58px;font-family:Arial;color:#000000;direction:ltr;letter-spacing:0px;line-height:120%;opacity:1&quot;&gt;PosrgreSQL&lt;br&gt;&lt;/font&gt;&lt;/div&gt;&lt;div style=&quot;font-size: 1px&quot;&gt;&lt;font style=&quot;font-size:22.58px;font-family:Arial;color:#000000;direction:ltr;letter-spacing:0px;line-height:120%;opacity:1&quot;&gt;(shard2)&lt;/font&gt;&lt;/div&gt;" style="verticalAlign=bottom;align=center;overflow=width;vsdxID=6;fillColor=none;gradientColor=none;strokeColor=none;spacingTop=-3;spacingBottom=-3;spacingLeft=-3;spacingRight=-3;points=[];labelBackgroundColor=none;rounded=0;html=1;whiteSpace=wrap;container=0;" parent="1" vertex="1">
          <mxGeometry x="16" y="969.89" width="130" height="53.21" as="geometry" />
        </mxCell>
        <mxCell id="JNt9-kuH4g4dh-vLSPPS-56" value="" style="shape=image;verticalLabelPosition=bottom;verticalAlign=top;imageAspect=0;aspect=fixed;image=data:image/svg+xml,PHN2ZyB4bWxucz0iaHR0cDovL3d3dy53My5vcmcvMjAwMC9zdmciIHdpZHRoPSIzMiIgaGVpZ2h0PSIzMiIgdmlld0JveD0iMCAwIDMyIDMyIiBmaWxsPSJub25lIj4mI3hhOzxwYXRoIGQ9Ik0wIDE2QzAgNy4xNjM0NCA3LjE2MzQ0IDAgMTYgMFYwQzI0LjgzNjYgMCAzMiA3LjE2MzQ0IDMyIDE2VjE2QzMyIDI0LjgzNjYgMjQuODM2NiAzMiAxNiAzMlYzMkM3LjE2MzQ0IDMyIDAgMjQuODM2NiAwIDE2VjE2WiIgZmlsbD0iIzUyODJGRiIvPiYjeGE7PHBhdGggZmlsbC1ydWxlPSJldmVub2RkIiBjbGlwLXJ1bGU9ImV2ZW5vZGQiIGQ9Ik0xMyA4SDE4QzIxLjMgOCAyNCAxMC43IDI0IDE0VjI0SDIwVjIwSDIyVjE5SDE4LjZDMTUuNSAxOSAxMyAxNi41IDEzIDEzLjRWOFpNMTkgMTdIMjFWMTVIMTlWMTdaTTEyIDkuMDk5OThWMTMuNEMxMiAxNi44IDE0LjYgMTkuNyAxOCAyMC4xVjIwLjZDMTggMjIgMTUuOCAyMy4xIDEzIDIzLjFDMTAuMiAyMy4xIDggMjIgOCAyMC42VjExLjZDOCAxMC4zIDkuNyA5LjI5OTk4IDEyIDkuMDk5OThaIiBmaWxsPSJ3aGl0ZSIvPiYjeGE7PC9zdmc+;container=0;" parent="1" vertex="1">
          <mxGeometry x="60.5" y="928.89" width="36.26923076923077" height="36.26923076923077" as="geometry" />
        </mxCell>
        <mxCell id="JNt9-kuH4g4dh-vLSPPS-57" style="vsdxID=5;fillColor=none;gradientColor=none;shape=stencil(vVPLEoIgFP0aljgEVuPa6j+YRGUica6U9vdhUKk4LWzG3X0cOPdcOIilTclrgShpDOiLaGVmSsQOiFJZlQKksRFiR8TSXIMoQN+qzOU175F9dNX3/obOnSP9CUoeLktIFL8KJ4flcLZN8NhtRJiDwxsf7VwhQHjAhniCDvNONhi04UbqakSuOBQCWy6cK16MWk0rRB2U/XRKVgMlSRwl+1nyhWI+s0+Xs4KYgNvPtlBKuJvVniX4En+9yfxWVpDx2yc2+Bosl0o5fw77U0PakjMzOz4B);strokeColor=#ff5958;spacingTop=-3;spacingBottom=-3;spacingLeft=-3;spacingRight=-3;points=[];labelBackgroundColor=none;rounded=0;html=1;whiteSpace=wrap;container=0;" parent="1" vertex="1">
          <mxGeometry x="163" y="924.89" width="130" height="105.5" as="geometry" />
        </mxCell>
        <mxCell id="JNt9-kuH4g4dh-vLSPPS-58" value="&lt;div style=&quot;font-size: 1px&quot;&gt;&lt;font style=&quot;font-size:22.58px;font-family:Arial;color:#000000;direction:ltr;letter-spacing:0px;line-height:120%;opacity:1&quot;&gt;PosrgreSQL&lt;br&gt;&lt;/font&gt;&lt;/div&gt;&lt;div style=&quot;font-size: 1px&quot;&gt;&lt;font style=&quot;font-size:22.58px;font-family:Arial;color:#000000;direction:ltr;letter-spacing:0px;line-height:120%;opacity:1&quot;&gt;(sh2-rep1)&lt;/font&gt;&lt;/div&gt;" style="verticalAlign=bottom;align=center;overflow=width;vsdxID=6;fillColor=none;gradientColor=none;strokeColor=none;spacingTop=-3;spacingBottom=-3;spacingLeft=-3;spacingRight=-3;points=[];labelBackgroundColor=none;rounded=0;html=1;whiteSpace=wrap;container=0;" parent="1" vertex="1">
          <mxGeometry x="163" y="969.89" width="130" height="53.21" as="geometry" />
        </mxCell>
        <mxCell id="JNt9-kuH4g4dh-vLSPPS-59" value="" style="shape=image;verticalLabelPosition=bottom;verticalAlign=top;imageAspect=0;aspect=fixed;image=data:image/svg+xml,PHN2ZyB4bWxucz0iaHR0cDovL3d3dy53My5vcmcvMjAwMC9zdmciIHdpZHRoPSIzMiIgaGVpZ2h0PSIzMiIgdmlld0JveD0iMCAwIDMyIDMyIiBmaWxsPSJub25lIj4mI3hhOzxwYXRoIGQ9Ik0wIDE2QzAgNy4xNjM0NCA3LjE2MzQ0IDAgMTYgMFYwQzI0LjgzNjYgMCAzMiA3LjE2MzQ0IDMyIDE2VjE2QzMyIDI0LjgzNjYgMjQuODM2NiAzMiAxNiAzMlYzMkM3LjE2MzQ0IDMyIDAgMjQuODM2NiAwIDE2VjE2WiIgZmlsbD0iIzUyODJGRiIvPiYjeGE7PHBhdGggZmlsbC1ydWxlPSJldmVub2RkIiBjbGlwLXJ1bGU9ImV2ZW5vZGQiIGQ9Ik0xMyA4SDE4QzIxLjMgOCAyNCAxMC43IDI0IDE0VjI0SDIwVjIwSDIyVjE5SDE4LjZDMTUuNSAxOSAxMyAxNi41IDEzIDEzLjRWOFpNMTkgMTdIMjFWMTVIMTlWMTdaTTEyIDkuMDk5OThWMTMuNEMxMiAxNi44IDE0LjYgMTkuNyAxOCAyMC4xVjIwLjZDMTggMjIgMTUuOCAyMy4xIDEzIDIzLjFDMTAuMiAyMy4xIDggMjIgOCAyMC42VjExLjZDOCAxMC4zIDkuNyA5LjI5OTk4IDEyIDkuMDk5OThaIiBmaWxsPSJ3aGl0ZSIvPiYjeGE7PC9zdmc+;container=0;" parent="1" vertex="1">
          <mxGeometry x="207.5" y="928.89" width="36.26923076923077" height="36.26923076923077" as="geometry" />
        </mxCell>
        <mxCell id="JNt9-kuH4g4dh-vLSPPS-60" style="vsdxID=5;fillColor=#f5f5f5;shape=stencil(vVPLEoIgFP0aljgEVuPa6j+YRGUica6U9vdhUKk4LWzG3X0cOPdcOIilTclrgShpDOiLaGVmSsQOiFJZlQKksRFiR8TSXIMoQN+qzOU175F9dNX3/obOnSP9CUoeLktIFL8KJ4flcLZN8NhtRJiDwxsf7VwhQHjAhniCDvNONhi04UbqakSuOBQCWy6cK16MWk0rRB2U/XRKVgMlSRwl+1nyhWI+s0+Xs4KYgNvPtlBKuJvVniX4En+9yfxWVpDx2yc2+Bosl0o5fw77U0PakjMzOz4B);strokeColor=#666666;spacingTop=-3;spacingBottom=-3;spacingLeft=-3;spacingRight=-3;points=[];labelBackgroundColor=none;rounded=0;html=1;whiteSpace=wrap;container=0;fontColor=#333333;" parent="1" vertex="1">
          <mxGeometry x="314" y="923.89" width="130" height="105.5" as="geometry" />
        </mxCell>
        <mxCell id="JNt9-kuH4g4dh-vLSPPS-61" value="&lt;div style=&quot;font-size: 1px&quot;&gt;&lt;font style=&quot;font-size:22.58px;font-family:Arial;color:#000000;direction:ltr;letter-spacing:0px;line-height:120%;opacity:1&quot;&gt;PosrgreSQL&lt;br&gt;&lt;/font&gt;&lt;/div&gt;&lt;div style=&quot;font-size: 1px&quot;&gt;&lt;font style=&quot;font-size:22.58px;font-family:Arial;color:#000000;direction:ltr;letter-spacing:0px;line-height:120%;opacity:1&quot;&gt;(sh1-rep2)&lt;/font&gt;&lt;/div&gt;" style="verticalAlign=bottom;align=center;overflow=width;vsdxID=6;fillColor=none;gradientColor=none;strokeColor=none;spacingTop=-3;spacingBottom=-3;spacingLeft=-3;spacingRight=-3;points=[];labelBackgroundColor=none;rounded=0;html=1;whiteSpace=wrap;container=0;" parent="1" vertex="1">
          <mxGeometry x="314" y="968.89" width="130" height="53.21" as="geometry" />
        </mxCell>
        <mxCell id="JNt9-kuH4g4dh-vLSPPS-62" value="" style="shape=image;verticalLabelPosition=bottom;verticalAlign=top;imageAspect=0;aspect=fixed;image=data:image/svg+xml,PHN2ZyB4bWxucz0iaHR0cDovL3d3dy53My5vcmcvMjAwMC9zdmciIHdpZHRoPSIzMiIgaGVpZ2h0PSIzMiIgdmlld0JveD0iMCAwIDMyIDMyIiBmaWxsPSJub25lIj4mI3hhOzxwYXRoIGQ9Ik0wIDE2QzAgNy4xNjM0NCA3LjE2MzQ0IDAgMTYgMFYwQzI0LjgzNjYgMCAzMiA3LjE2MzQ0IDMyIDE2VjE2QzMyIDI0LjgzNjYgMjQuODM2NiAzMiAxNiAzMlYzMkM3LjE2MzQ0IDMyIDAgMjQuODM2NiAwIDE2VjE2WiIgZmlsbD0iIzUyODJGRiIvPiYjeGE7PHBhdGggZmlsbC1ydWxlPSJldmVub2RkIiBjbGlwLXJ1bGU9ImV2ZW5vZGQiIGQ9Ik0xMyA4SDE4QzIxLjMgOCAyNCAxMC43IDI0IDE0VjI0SDIwVjIwSDIyVjE5SDE4LjZDMTUuNSAxOSAxMyAxNi41IDEzIDEzLjRWOFpNMTkgMTdIMjFWMTVIMTlWMTdaTTEyIDkuMDk5OThWMTMuNEMxMiAxNi44IDE0LjYgMTkuNyAxOCAyMC4xVjIwLjZDMTggMjIgMTUuOCAyMy4xIDEzIDIzLjFDMTAuMiAyMy4xIDggMjIgOCAyMC42VjExLjZDOCAxMC4zIDkuNyA5LjI5OTk4IDEyIDkuMDk5OThaIiBmaWxsPSJ3aGl0ZSIvPiYjeGE7PC9zdmc+;container=0;" parent="1" vertex="1">
          <mxGeometry x="358.5" y="927.89" width="36.26923076923077" height="36.26923076923077" as="geometry" />
        </mxCell>
        <mxCell id="JNt9-kuH4g4dh-vLSPPS-63" value="HAProxy" style="shape=image;verticalLabelPosition=bottom;verticalAlign=top;imageAspect=0;aspect=fixed;image=data:image/svg+xml,PHN2ZyB4bWxucz0iaHR0cDovL3d3dy53My5vcmcvMjAwMC9zdmciIHdpZHRoPSIzMiIgaGVpZ2h0PSIzMiIgdmlld0JveD0iMCAwIDMyIDMyIiBmaWxsPSJub25lIj4mI3hhOzxwYXRoIGQ9Ik0wIDE2QzAgNy4xNjM0NCA3LjE2MzQ0IDAgMTYgMFYwQzI0LjgzNjYgMCAzMiA3LjE2MzQ0IDMyIDE2VjE2QzMyIDI0LjgzNjYgMjQuODM2NiAzMiAxNiAzMlYzMkM3LjE2MzQ0IDMyIDAgMjQuODM2NiAwIDE2VjE2WiIgZmlsbD0iIzUyODJGRiIvPiYjeGE7PHBhdGggZD0iTTE3IDE3SDE5LjNDMTkuNyAxNy42IDIwLjMgMTggMjEgMThDMjIuMSAxOCAyMyAxNy4xIDIzIDE2QzIzIDE0LjkgMjIuMSAxNCAyMSAxNEMyMC4zIDE0IDE5LjYgMTQuNCAxOS4zIDE1SDE3VjExSDE5LjNDMTkuNyAxMS42IDIwLjMgMTIgMjEgMTJDMjIuMSAxMiAyMyAxMS4xIDIzIDEwQzIzIDguOSAyMi4xIDggMjEgOEMyMC4zIDggMTkuNiA4LjQgMTkuMyA5SDE3QzE1LjkgOSAxNSA5LjkgMTUgMTFWMTUuM0wxMCAxMlYxNUg3VjE3SDEwVjIwTDE1IDE2LjdWMjFDMTUgMjIuMSAxNS45IDIzIDE3IDIzSDE5LjNDMTkuNyAyMy42IDIwLjMgMjQgMjEgMjRDMjIuMSAyNCAyMyAyMy4xIDIzIDIyQzIzIDIwLjkgMjIuMSAyMCAyMSAyMEMyMC4zIDIwIDE5LjYgMjAuNCAxOS4zIDIxSDE3VjE3WiIgZmlsbD0id2hpdGUiLz4mI3hhOzwvc3ZnPg==;fontSize=20;strokeWidth=20;" parent="1" vertex="1">
          <mxGeometry x="211.15999999999997" y="792.59" width="45.68" height="45.68" as="geometry" />
        </mxCell>
        <mxCell id="JNt9-kuH4g4dh-vLSPPS-65" style="edgeStyle=orthogonalEdgeStyle;rounded=0;orthogonalLoop=1;jettySize=auto;html=1;entryX=0.499;entryY=-0.028;entryDx=0;entryDy=0;entryPerimeter=0;" parent="1" source="JNt9-kuH4g4dh-vLSPPS-63" target="JNt9-kuH4g4dh-vLSPPS-54" edge="1">
          <mxGeometry relative="1" as="geometry" />
        </mxCell>
        <mxCell id="JNt9-kuH4g4dh-vLSPPS-66" style="edgeStyle=orthogonalEdgeStyle;rounded=0;orthogonalLoop=1;jettySize=auto;html=1;entryX=0.75;entryY=0;entryDx=0;entryDy=0;" parent="1" source="JNt9-kuH4g4dh-vLSPPS-63" target="JNt9-kuH4g4dh-vLSPPS-59" edge="1">
          <mxGeometry relative="1" as="geometry" />
        </mxCell>
        <mxCell id="JNt9-kuH4g4dh-vLSPPS-67" style="edgeStyle=orthogonalEdgeStyle;rounded=0;orthogonalLoop=1;jettySize=auto;html=1;entryX=0.491;entryY=0.01;entryDx=0;entryDy=0;entryPerimeter=0;" parent="1" source="JNt9-kuH4g4dh-vLSPPS-63" target="JNt9-kuH4g4dh-vLSPPS-60" edge="1">
          <mxGeometry relative="1" as="geometry" />
        </mxCell>
        <mxCell id="JNt9-kuH4g4dh-vLSPPS-68" style="edgeStyle=orthogonalEdgeStyle;rounded=0;orthogonalLoop=1;jettySize=auto;html=1;entryX=0.425;entryY=1.006;entryDx=0;entryDy=0;entryPerimeter=0;exitX=0.538;exitY=1.025;exitDx=0;exitDy=0;exitPerimeter=0;dashed=1;" parent="1" source="JNt9-kuH4g4dh-vLSPPS-54" target="JNt9-kuH4g4dh-vLSPPS-57" edge="1">
          <mxGeometry relative="1" as="geometry">
            <Array as="points">
              <mxPoint x="86" y="1050.8899999999999" />
              <mxPoint x="218" y="1050.8899999999999" />
            </Array>
          </mxGeometry>
        </mxCell>
        <mxCell id="Hn5-TI-IFNBs16-RggJM-3" value="&lt;font style=&quot;font-size: 16px;&quot;&gt;Репликация&lt;/font&gt;" style="edgeLabel;html=1;align=center;verticalAlign=middle;resizable=0;points=[];" parent="JNt9-kuH4g4dh-vLSPPS-68" vertex="1" connectable="0">
          <mxGeometry x="-0.0634" y="-1" relative="1" as="geometry">
            <mxPoint as="offset" />
          </mxGeometry>
        </mxCell>
        <mxCell id="JNt9-kuH4g4dh-vLSPPS-77" style="edgeStyle=orthogonalEdgeStyle;rounded=0;orthogonalLoop=1;jettySize=auto;html=1;entryX=0.5;entryY=0;entryDx=0;entryDy=0;" parent="1" source="JNt9-kuH4g4dh-vLSPPS-72" target="JNt9-kuH4g4dh-vLSPPS-63" edge="1">
          <mxGeometry relative="1" as="geometry" />
        </mxCell>
        <mxCell id="JNt9-kuH4g4dh-vLSPPS-72" value="Citus worker" style="shape=image;verticalLabelPosition=bottom;labelBackgroundColor=#ffffff;verticalAlign=top;aspect=fixed;imageAspect=0;image=data:image/svg+xml,PHN2ZyB4bWxucz0iaHR0cDovL3d3dy53My5vcmcvMjAwMC9zdmciIHdpZHRoPSIzMiIgaGVpZ2h0PSIzMiIgdmlld0JveD0iMCAwIDMyIDMyIiBmaWxsPSJub25lIj4mI3hhOzxwYXRoIGQ9Ik0wIDE2QzAgNy4xNjM0NCA3LjE2MzQ0IDAgMTYgMEMyNC44MzY2IDAgMzIgNy4xNjM0NCAzMiAxNkMzMiAyNC44MzY2IDI0LjgzNjYgMzIgMTYgMzJDNy4xNjM0NCAzMiAwIDI0LjgzNjYgMCAxNloiIGZpbGw9IiM1MjgyRkYiLz4mI3hhOzxwYXRoIGZpbGwtcnVsZT0iZXZlbm9kZCIgY2xpcC1ydWxlPSJldmVub2RkIiBkPSJNMTkgMjEuNDkyQzE5IDIxLjI2NSAxOS4wNTEgMjEuMDUyIDE5LjE0NiAyMC44NTJMMTcuMjk4IDE4Ljk5OEgxNlYxOS42NzhDMTYgMjAuNDEyIDE1LjQwOCAyMC45OTggMTQuNjc5IDIwLjk5OEg5LjMyQzguNTkxIDIwLjk5OCA4IDIwLjQxMiA4IDE5LjY3OFYxMS4zMTlDOCAxMC41ODYgOC41OTIgOS45OTkwMSA5LjMyMSA5Ljk5OTAxSDE0LjY4QzE1LjQxIDkuOTk5MDEgMTYuMDAxIDEwLjU4NiAxNi4wMDEgMTEuMzE5VjExLjk5OUgxNy4yOTlMMTkuMTQ2IDEwLjE0NkMxOS4wMzYxIDkuOTE3NDkgMTguOTg2IDkuNjY0OCAxOS4wMDA0IDkuNDExNjNDMTkuMDE0OSA5LjE1ODQ2IDE5LjA5MzQgOC45MTMxMiAxOS4yMjg3IDguNjk4NjFDMTkuMzYzOSA4LjQ4NDEgMTkuNTUxNCA4LjMwNzQ3IDE5Ljc3MzYgOC4xODUyN0MxOS45OTU4IDguMDYzMDggMjAuMjQ1NCA3Ljk5OTMzIDIwLjQ5OSA4LjAwMDAxQzIwLjcyNDIgNy45OTk5MSAyMC45NDY2IDguMDUwNTQgMjEuMTQ5NiA4LjE0ODEzQzIxLjM1MjUgOC4yNDU3MiAyMS41MzA5IDguMzg3NzYgMjEuNjcxNSA4LjU2MzcyQzIxLjgxMjEgOC43Mzk2OCAyMS45MTEyIDguOTQ1MDMgMjEuOTYxNiA5LjE2NDU1QzIyLjAxMiA5LjM4NDA3IDIyLjAxMjMgOS42MTIxMSAyMS45NjI1IDkuODMxNzVDMjEuOTEyNiAxMC4wNTE0IDIxLjgxNCAxMC4yNTcgMjEuNjczOSAxMC40MzMzQzIxLjUzMzcgMTAuNjA5NiAyMS4zNTU3IDEwLjc1MjEgMjEuMTUzIDEwLjg1MDJDMjAuOTUwMiAxMC45NDgzIDIwLjcyOCAxMC45OTk1IDIwLjUwMjggMTFDMjAuMjc3NiAxMS4wMDA1IDIwLjA1NTEgMTAuOTUwMiAxOS44NTIgMTAuODUzTDE3Ljg2IDEyLjg1M0MxNy43NjU4IDEyLjk0NjIgMTcuNjM4NSAxMi45OTgzIDE3LjUwNiAxMi45OThIMTZWMTQuOTk4SDIxLjA4MkMyMS4yODggMTQuNDExIDIxLjg0NCAxMy45OTggMjIuNDk4IDEzLjk5OEMyMi44OTU4IDEzLjk5OCAyMy4yNzc0IDE0LjE1NiAyMy41NTg3IDE0LjQzNzNDMjMuODQgMTQuNzE4NiAyMy45OTggMTUuMTAwMiAyMy45OTggMTUuNDk4QzIzLjk5OCAxNS44OTU4IDIzLjg0IDE2LjI3NzQgMjMuNTU4NyAxNi41NTg3QzIzLjI3NzQgMTYuODQgMjIuODk1OCAxNi45OTggMjIuNDk4IDE2Ljk5OEMyMS44NDQgMTYuOTk4IDIxLjI4OCAxNi41ODQgMjEuMDgyIDE1Ljk5OEgxNlYxNy45OThIMTcuNTA2QzE3LjYzOCAxNy45OTggMTcuNzY2IDE4LjA1MSAxNy44NiAxOC4xNDRMMTkuODUzIDIwLjE0NEMyMC4wODEyIDIwLjAzMzYgMjAuMzMzNiAxOS45ODMgMjAuNTg2NyAxOS45OTY4QzIwLjgzOTggMjAuMDEwNiAyMS4wODUzIDIwLjA4ODUgMjEuMzAwMSAyMC4yMjMxQzIxLjUxNDggMjAuMzU3OCAyMS42OTE5IDIwLjU0NDcgMjEuODE0NyAyMC43NjY1QzIxLjkzNzUgMjAuOTg4MiAyMi4wMDE5IDIxLjIzNzUgMjIuMDAyIDIxLjQ5MUMyMi4wMDI5IDIxLjY4ODcgMjEuOTY0NyAyMS44ODQ3IDIxLjg4OTYgMjIuMDY3NkMyMS44MTQ2IDIyLjI1MDYgMjEuNzA0IDIyLjQxNjggMjEuNTY0NCAyMi41NTY5QzIxLjQyNDggMjIuNjk3IDIxLjI1ODkgMjIuODA4IDIxLjA3NjMgMjIuODgzN0MyMC44OTM2IDIyLjk1OTQgMjAuNjk3NyAyMi45OTgzIDIwLjUgMjIuOTk4QzIwLjMwMjMgMjIuOTk4MyAyMC4xMDY2IDIyLjk1OTUgMTkuOTI0IDIyLjg4MzhDMTkuNzQxNCAyMi44MDgyIDE5LjU3NTUgMjIuNjk3MiAxOS40MzU5IDIyLjU1NzNDMTkuMjk2MyAyMi40MTczIDE5LjE4NTggMjIuMjUxMSAxOS4xMTA2IDIyLjA2ODNDMTkuMDM1NSAyMS44ODU1IDE4Ljk5NzIgMjEuNjg5NyAxOC45OTggMjEuNDkySDE5Wk0xNSAxNy41MDVWMTcuNDkyQzE0Ljk5ODQgMTcuMzYwOCAxNC45NDUzIDE3LjIzNTQgMTQuODUyMiAxNy4xNDNDMTQuNzU5IDE3LjA1MDYgMTQuNjMzMiAxNi45OTg1IDE0LjUwMiAxNi45OThIOS40OThDOS4zNjY3NyAxNi45OTg1IDkuMjQxMDEgMTcuMDUwNiA5LjE0Nzg0IDE3LjE0M0M5LjA1NDY3IDE3LjIzNTQgOS4wMDE1NyAxNy4zNjA4IDkgMTcuNDkyVjE3LjUwNUM5LjAwMTgzIDE3LjYzNjEgOS4wNTUwNSAxNy43NjExIDkuMTQ4MTkgMTcuODUzM0M5LjI0MTMyIDE3Ljk0NTUgOS4zNjY5NCAxNy45OTc1IDkuNDk4IDE3Ljk5OEgxNC41MDJDMTQuNjMzMSAxNy45OTc1IDE0Ljc1ODcgMTcuOTQ1NSAxNC44NTE4IDE3Ljg1MzNDMTQuOTQ1IDE3Ljc2MTEgMTQuOTk4MiAxNy42MzYxIDE1IDE3LjUwNVpNMTUgMTMuNTA1VjEzLjQ5MkMxNC45OTgyIDEzLjM2MSAxNC45NDUgMTMuMjM1OSAxNC44NTE4IDEzLjE0MzdDMTQuNzU4NyAxMy4wNTE1IDE0LjYzMzEgMTIuOTk5NSAxNC41MDIgMTIuOTk5SDkuNDk4QzkuMzY2OTQgMTIuOTk5NSA5LjI0MTMyIDEzLjA1MTUgOS4xNDgxOSAxMy4xNDM3QzkuMDU1MDUgMTMuMjM1OSA5LjAwMTgzIDEzLjM2MSA5IDEzLjQ5MlYxMy41MDZDOS4wMDIwOSAxMy42MzY5IDkuMDU1NDIgMTMuNzYxNyA5LjE0ODUzIDEzLjg1MzdDOS4yNDE2NCAxMy45NDU3IDkuMzY3MTEgMTMuOTk3NSA5LjQ5OCAxMy45OThIMTQuNTAyQzE0LjYzMjkgMTMuOTk3NSAxNC43NTg0IDEzLjk0NTcgMTQuODUxNSAxMy44NTM3QzE0Ljk0NDYgMTMuNzYxNyAxNC45OTc5IDEzLjYzNjkgMTUgMTMuNTA2VjEzLjUwNVoiIGZpbGw9IndoaXRlIi8+JiN4YTs8L3N2Zz4=;fontSize=20;" parent="1" vertex="1">
          <mxGeometry x="206.84000000000003" y="689" width="50" height="50" as="geometry" />
        </mxCell>
        <mxCell id="Hn5-TI-IFNBs16-RggJM-2" style="edgeStyle=orthogonalEdgeStyle;rounded=0;orthogonalLoop=1;jettySize=auto;html=1;entryX=1.025;entryY=0.544;entryDx=0;entryDy=0;entryPerimeter=0;dashed=1;" parent="1" source="JNt9-kuH4g4dh-vLSPPS-55" target="JNt9-kuH4g4dh-vLSPPS-21" edge="1">
          <mxGeometry relative="1" as="geometry" />
        </mxCell>
        <mxCell id="Hn5-TI-IFNBs16-RggJM-5" value="&lt;font style=&quot;font-size: 14px;&quot;&gt;Репликация&lt;/font&gt;" style="edgeLabel;html=1;align=center;verticalAlign=middle;resizable=0;points=[];" parent="Hn5-TI-IFNBs16-RggJM-2" vertex="1" connectable="0">
          <mxGeometry x="-0.461" y="-2" relative="1" as="geometry">
            <mxPoint x="-24" y="-11" as="offset" />
          </mxGeometry>
        </mxCell>
        <mxCell id="Hn5-TI-IFNBs16-RggJM-10" style="edgeStyle=orthogonalEdgeStyle;rounded=0;orthogonalLoop=1;jettySize=auto;html=1;entryX=0.652;entryY=-0.001;entryDx=0;entryDy=0;entryPerimeter=0;" parent="1" source="JNt9-kuH4g4dh-vLSPPS-4" target="JNt9-kuH4g4dh-vLSPPS-78" edge="1">
          <mxGeometry relative="1" as="geometry" />
        </mxCell>
        <mxCell id="Hn5-TI-IFNBs16-RggJM-11" value="&lt;font style=&quot;font-size: 18px;&quot;&gt;health check&lt;/font&gt;" style="edgeLabel;html=1;align=center;verticalAlign=middle;resizable=0;points=[];" parent="Hn5-TI-IFNBs16-RggJM-10" vertex="1" connectable="0">
          <mxGeometry x="0.1667" y="-3" relative="1" as="geometry">
            <mxPoint as="offset" />
          </mxGeometry>
        </mxCell>
        <mxCell id="Hn5-TI-IFNBs16-RggJM-12" value="Text" style="text;html=1;align=center;verticalAlign=middle;whiteSpace=wrap;rounded=0;" parent="1" vertex="1">
          <mxGeometry x="200" y="703.89" width="60" height="30" as="geometry" />
        </mxCell>
        <mxCell id="Hn5-TI-IFNBs16-RggJM-16" value="&lt;div&gt;&lt;b&gt;Комментарии:&lt;/b&gt;&lt;/div&gt;&lt;div&gt;1.&lt;/div&gt;a) Выбрана реализация&amp;nbsp;независимых кластеров в каждой площадке, для&amp;nbsp;снижения зависимости от сетевой связанности между ЦОД&lt;br&gt;&lt;br&gt;&lt;div&gt;b) Для балансировки нагрузки между ЦОД будет применен GSLB (Global Server Load Balancer), с его помощью реализуем выбор оптимального адреса для отправки запроса клиентом&lt;/div&gt;&lt;div&gt;&lt;br&gt;&lt;/div&gt;&lt;div&gt;c) Выбрана фейловер-стратегия Active-Active с георезервированием, потому что у нас требование от бизнеса по доступности приложения 99,9% - при работе приложения 24/7, это 8.76 часа простоя в год&lt;/div&gt;&lt;div&gt;&lt;br&gt;&lt;/div&gt;&lt;div&gt;d) Для репликации данных и их резервного копирования используем Patroni&lt;/div&gt;&lt;div&gt;&lt;br&gt;&lt;/div&gt;&lt;div&gt;2.&lt;/div&gt;&lt;div&gt;Поскольку планируется развитие на всей территории РФ и ожидается сильное увеличение кол-ва клиентов, будет реализовано шардирование БД. Управление запросами к нужному шарду обеспечивается через Citus&lt;/div&gt;&lt;div&gt;&amp;nbsp;&lt;/div&gt;&lt;div&gt;** Дополнение к реализации шардирования:&lt;br&gt;&lt;div&gt;sh2-rep2 не виден для приложений ЦОД 1 и&lt;/div&gt;&lt;div&gt;sh1-rep2 не виден для приложений ЦОД 2&lt;/div&gt;&lt;/div&gt;&lt;div&gt;Они активируются только в случае недоступности одного из ЦОД.&lt;/div&gt;" style="text;html=1;align=left;verticalAlign=top;whiteSpace=wrap;rounded=0;fontSize=18;labelPosition=center;verticalLabelPosition=middle;" parent="1" vertex="1">
          <mxGeometry x="-630" y="1263.8899999999999" width="1067" height="480" as="geometry" />
        </mxCell>
        <mxCell id="Hn5-TI-IFNBs16-RggJM-17" value="" style="rounded=0;whiteSpace=wrap;html=1;fillColor=none;strokeColor=#1736FF;" parent="1" vertex="1">
          <mxGeometry x="-645.73" y="1263.8899999999999" width="1095.73" height="490" as="geometry" />
        </mxCell>
      </root>
    </mxGraphModel>
  </diagram>
</mxfile>
